<svg xmlns="http://www.w3.org/2000/svg" viewBox="0 0 613.46 631.41"><defs><style>.cls-1{fill:#4f4410;}.cls-2{fill:#dfa227;}.cls-3{fill:#db9728;}.cls-4{fill:#252020;}.cls-5{fill:#242020;}.cls-6{fill:#514510;}.cls-7{fill:#762816;}.cls-8{fill:#d99627;}.cls-9{fill:#583b13;}.cls-10{fill:#665016;}.cls-11{fill:#5c4114;}.cls-12{fill:#4d4311;}.cls-13{fill:#645c13;}.cls-14{fill:#ec3825;}.cls-15{fill:#36250f;}.cls-16{fill:#887d16;}.cls-17{fill:#48390f;}.cls-18{fill:#443a0e;}.cls-19{fill:#fcd424;}.cls-20{fill:#5e4114;}.cls-21{fill:#db9828;}.cls-22{fill:#db9827;}.cls-23{fill:#ed3825;}.cls-24{fill:#641711;}.cls-25{fill:#df9626;}.cls-26{fill:#130f0e;}.cls-27{fill:#130f0d;}.cls-28{fill:#775f13;}.cls-29{fill:#ea5560;}.cls-30{fill:#a71f2c;}.cls-31{fill:#f4f6f5;}.cls-32{fill:#eef0ee;}</style></defs><title>Asset 2@</title><g id="Layer_2" data-name="Layer 2"><g id="Layer_1-2" data-name="Layer 1"><path class="cls-1" d="M138.86,555c4.9.29,8.25,4,12.52,5.7a47.64,47.64,0,0,0,34,1.22,120.93,120.93,0,0,0,27.89-13c2.72-1.75,5.08-4.48,8.84-4a76.85,76.85,0,0,1-36.21,19.62c-7.27,1.66-9.69,5.72-10.67,12.19-2.34,15.49-6.45,30.39-15.63,43.45-1.31,1.86-2.14,4.16-4.66,4.84-2.94-6.82-.25-13.63.13-20.44.08-1.28,1.16-3.39,2-3.15,4.32,1.21,6.19-.27,7.41-4.49,2.21-7.65,5.06-15.15,4.9-23.25,0-2.87-2.66-3.53-5-3.88-2.95-.43-6-.59-8.81-1.58-6.56-2.31-9.32,1.15-10.44,6.86-2,10.28-1.58,20.72-1.54,31.21,1-1.8-.18-3.53-.21-5.24-.05-2.94,1-5.87,4-6,4.12-.12,2.93,3.65,2.83,6-.21,4.64-.47,9.28-.32,13.93.13,4.12.73,8,5.22,9.84-.15,2.89-1.32,5.32-4.25,5.93-3.61.74-4-2.75-5.26-4.87-3.17-5.5-4.64-11.42-5.35-17.82-1.61-14.56-2-29.08,1.21-43.37C142.37,560.38,140.38,558,138.86,555Z"/><path d="M149.86,631.41c-2.43,0-3.33-2.06-4.06-3.76a14.25,14.25,0,0,0-.7-1.46c-2.88-5-4.6-10.74-5.41-18-1.95-17.59-1.57-31,1.22-43.54.76-3.42-.36-5.49-1.67-7.88-.27-.52-.56-1-.82-1.57l-.39-.78.86.05c3.23.19,5.81,1.8,8.3,3.35a29.91,29.91,0,0,0,4.37,2.39,47,47,0,0,0,33.64,1.2A119.6,119.6,0,0,0,213,548.51c.6-.39,1.2-.84,1.78-1.27,2.11-1.57,4.28-3.2,7.39-2.81l1,.13-.76.73A77.32,77.32,0,0,1,186,565c-7.31,1.66-9.4,5.91-10.28,11.77C172.88,595.57,168,609,160,620.48c-.28.39-.53.81-.79,1.22-.9,1.47-1.83,3-3.68,3.66-.3,3.33-1.89,5.38-4.62,5.94A4.91,4.91,0,0,1,149.86,631.41Zm-10.13-75.85.39.72c1.34,2.46,2.61,4.79,1.77,8.58-2.77,12.4-3.14,25.73-1.2,43.21.79,7.12,2.46,12.72,5.28,17.62a14.93,14.93,0,0,1,.74,1.56c.84,1.92,1.56,3.57,4,3.07,2.26-.47,3.54-2.14,3.81-5l0-.12,0-.07c-4.46-2-5-6.28-5.1-10.1-.14-4.22.06-8.49.26-12.62l.06-1.35c0-.39.06-.81.11-1.24.14-1.35.31-2.88-.4-3.65a2.55,2.55,0,0,0-2-.59c-2.25.07-3.08,1.92-3.37,3.51,0,.93,0,1.84,0,2.76v.38l.12.45a4.73,4.73,0,0,1-.16,3.85l-.92,1.59v-1.84q0-2,0-3.93a7.12,7.12,0,0,1-.18-1.31A10.52,10.52,0,0,1,143,599c-.06-7.94.05-16.07,1.6-24,.73-3.7,2.05-6,4.06-7.2,1.8-1,4.17-1,7,0a30.34,30.34,0,0,0,6.48,1.27c.75.1,1.5.19,2.24.3,1.75.26,5.39.8,5.46,4.36.13,6.74-1.82,13.15-3.71,19.35-.41,1.35-.82,2.69-1.21,4.05-1.37,4.71-3.62,6.07-8,4.83h0c-.33,0-1.29,1.5-1.36,2.7a59.72,59.72,0,0,1-.73,6c-.73,4.74-1.42,9.23.38,13.79h0c1.5-.58,2.29-1.87,3.13-3.23.27-.43.53-.87.82-1.28,8-11.31,12.74-24.64,15.55-43.24.94-6.27,3.18-10.81,11.05-12.59a76.12,76.12,0,0,0,35.1-18.69c-2.12.13-3.77,1.36-5.51,2.66-.59.44-1.21.9-1.84,1.31a120.57,120.57,0,0,1-28,13,48,48,0,0,1-34.32-1.22,31.37,31.37,0,0,1-4.53-2.47C144.42,557.26,142.29,555.94,139.73,555.56Zm7.79,39.05a3.32,3.32,0,0,1,2.58.92c1,1.09.82,2.86.65,4.42,0,.42-.09.82-.1,1.18l-.07,1.36c-.19,4.11-.38,8.36-.25,12.54.11,3.36.5,6.76,3.57,8.71-1.43-4.48-.74-9-.06-13.29.29-1.93.6-3.93.71-5.89a5.33,5.33,0,0,1,1.64-3.39,1.11,1.11,0,0,1,1-.21c3.86,1.09,5.58,0,6.79-4.15.39-1.36.8-2.71,1.21-4.06,1.87-6.13,3.8-12.46,3.67-19,0-2.26-1.87-3-4.61-3.39-.73-.11-1.47-.2-2.21-.29a32.34,32.34,0,0,1-6.69-1.32c-2.62-.92-4.65-.93-6.22,0-1.73,1-2.9,3.13-3.57,6.52A109.61,109.61,0,0,0,144,596.43a4,4,0,0,1,3.35-1.82Z"/><path class="cls-2" d="M155.05,624.88c-3.69,2.09-7,3.15-7.43-2.94-.62-8.24-1.12-16.48-.34-24.86-3.69,3.94-1.09,9.5-3.39,14.44-3.19-15.11-4.59-29.54.48-44.1,1.31-3.74,2.67-4.94,6.29-3.47a40,40,0,0,0,17.46,3.28c4.11-.23,5.29,1.95,4.77,5.56-1.87,13.08-4.78,25.83-11.75,37.81-3.37-2.25-1.4-5.85-2.38-7.45-1.47-1-1.82-.74-2,.23-1,7.19.71,14.61-1.88,21.65Z"/><path d="M150.62,627a2.89,2.89,0,0,1-1.42-.34c-1.21-.64-1.89-2.18-2.08-4.7a157,157,0,0,1-.49-23.16c-1,1.8-1,3.89-1.1,6.07a16.82,16.82,0,0,1-1.19,6.84l-.63,1.36-.31-1.47c-2.93-13.88-4.9-28.86.5-44.36.84-2.41,1.66-3.61,2.83-4.14s2.35-.35,4.12.36a39.49,39.49,0,0,0,17.25,3.26c2-.12,3.45.32,4.35,1.3s1.26,2.61.94,4.82c-1.67,11.6-4.37,25.19-11.82,38l-.27.46-.44-.3c-2.41-1.61-2.35-3.9-2.3-5.58a4.64,4.64,0,0,0-.18-1.94c-.71-.48-.95-.49-1-.49s0,.11-.09.44a58.13,58.13,0,0,0-.35,8.34c0,4,.05,8.08-1.12,12.07l1.54-.87-2,2.3-.59,1.59-.22-1.15A9.11,9.11,0,0,1,150.62,627Zm-2.7-31.35-.14,1.45c-.78,8.35-.29,16.49.33,24.78.16,2.13.69,3.44,1.56,3.9,1.18.63,3.1-.22,4.88-1.21,1.46-4.16,1.43-8.55,1.4-12.8a58.94,58.94,0,0,1,.36-8.48,1.48,1.48,0,0,1,.69-1.22c.47-.21,1.07,0,2,.65l.15.15a4.74,4.74,0,0,1,.37,2.58c0,1.54-.09,3.14,1.42,4.4,7.16-12.51,9.79-25.79,11.42-37.15.27-1.87,0-3.22-.69-4s-1.88-1.07-3.56-1a40.18,40.18,0,0,1-17.67-3.32c-1.5-.61-2.56-.73-3.34-.38s-1.56,1.46-2.29,3.56c-5.1,14.63-3.52,28.84-.83,42.09a21.81,21.81,0,0,0,.51-4.82c.09-2.84.18-5.77,2.39-8.12Z"/><path class="cls-3" d="M252.83,518.89l-4.75,4c-5.91,2.69-10.08,7.23-13.42,12.65-4.18,3.14-7.37,7.61-12.57,9.38-13.44,8.66-27.3,16-43,20.38-14,3.88-25.32.79-36.18-7.44a41.5,41.5,0,0,0-4-2.91l.09.1c-5.93-4.72-11.55-9.75-15-16.65-1.26-2.51-3.51-5.07-.88-8.08,4.37-2,7.7.84,11.18,2.59,7.24,3.65,14.74,4.32,22.28,1.56,24.49-9,46.56-22.75,69.29-35.22,9.62-5.28,10.1-14.82,12.16-23.75,4.07,1.14,4.07,1.14,7.73,6.19-2.5-5.26-6.82-9-9.73-13.76-3.33-5.43-6-11.16-6.93-17.51-.41-2.67-.52-5.92,2.15-7.16,3.5-1.63,4,2.26,5.59,4.16,11.35,13.86,22.47,27.93,37.58,38.11,3.44,2.32,6.74,4.79,10.82,1.88s3-7,1.71-10.88c-1.12-3.48-2.22-7-3.68-10.33,1.5,3.57,2.55,7.29,3.76,11s2,7.26-1.62,10c-4.05,3.06-7.28.61-10.81-1.57-12.4-7.64-21.68-18.69-30.78-29.56-7-8.31-14.27-16.56-19.86-26a34.46,34.46,0,0,1-2.53-5.09c-.94-2.72-2.21-5.46-1.9-8.34.44-4,2.35-5.15,5.59-2a13.07,13.07,0,0,1,1.56,2.2c1.78,3.18,2.5,7.27,7,8.18,7.65,10.78,20.88,13.6,30.61,21.43,3.11,2.5,5.46,1.51,6.29-2.65,2.26-11.28,10.7-14.56,20.64-15.22,11.37-.76,22.8-.89,32.42,6.79,2.63,2.1,4.25-.1,6.29-.81,4.55,2.34,3.84,6.6,3.55,10.44-1.39,18.92-7.53,35.41-24.4,46.19l.1-.06c-12.33,9.7-26.88,15-41.26,20.57A100.6,100.6,0,0,0,252.83,518.89Z"/><path d="M167.6,567.47c-8.71,0-16.84-3-25-9.2l-.89-.68a28.65,28.65,0,0,0-3.06-2.17l0,0c-5.39-4.3-11.46-9.49-15.14-16.82-.19-.39-.41-.78-.63-1.17-1.23-2.19-2.62-4.66-.17-7.46l.17-.12c3.84-1.72,6.88,0,9.82,1.63.59.33,1.18.66,1.78,1,7.29,3.67,14.65,4.19,21.89,1.54,19.23-7,37.28-17.23,54.74-27.09,4.73-2.67,9.63-5.44,14.48-8.1,8-4.4,9.51-11.73,11.08-19.49.27-1.31.54-2.63.84-3.93l.11-.51.51.14a14.43,14.43,0,0,1,3.58,1.29c-.64-.82-1.29-1.63-1.93-2.42a54.33,54.33,0,0,1-4.21-5.69c-3.92-6.39-6.15-12-7-17.71-.39-2.63-.57-6.28,2.44-7.68a4.62,4.62,0,0,1,.93-.34,117.63,117.63,0,0,1-8.44-12.2,34.57,34.57,0,0,1-2.56-5.17c-.16-.46-.33-.9-.49-1.34-.85-2.31-1.72-4.7-1.45-7.24.26-2.31,1-3.7,2.15-4.13s2.61.17,4.28,1.78a13.62,13.62,0,0,1,1.65,2.31c.41.73.76,1.49,1.1,2.24,1.19,2.59,2.31,5,5.56,5.7l.19,0,.12.17c4.63,6.52,11.49,10.18,18.13,13.71A77.14,77.14,0,0,1,264.53,446c.93.74,2.27,1.54,3.41,1.13,1-.35,1.69-1.56,2.08-3.49,2.58-12.92,13.28-15.1,21.09-15.62,11.75-.78,23.09-.84,32.78,6.9,1.67,1.33,2.78.7,4.18-.09a9.13,9.13,0,0,1,1.63-.8l.2-.07.19.1c4.52,2.32,4.18,6.45,3.89,10.09l-.07.83c-1.62,22-9.41,36.79-24.5,46.48-11.81,9.29-25.82,14.67-39.36,19.87l-2,.78a99.05,99.05,0,0,0-14.91,7.23l-4.83,4.06c-5.25,2.38-9.44,6.34-13.2,12.45L235,536a47.78,47.78,0,0,0-3.88,3.37c-2.56,2.37-5.21,4.83-8.77,6.06-15.92,10.26-29.21,16.55-43.09,20.41A43.06,43.06,0,0,1,167.6,567.47Zm-28.59-13,.1.06a28,28,0,0,1,3.22,2.26l.88.69c11.4,8.62,22.75,11,35.74,7.35,13.79-3.84,27-10.1,42.87-20.32l.11-.06c3.38-1.15,5.85-3.44,8.47-5.87a48.72,48.72,0,0,1,3.89-3.37c3.84-6.22,8.14-10.27,13.52-12.73l4.76-4a101.65,101.65,0,0,1,15.1-7.33l2-.77c13.46-5.17,27.37-10.51,39.06-19.68h0c14.89-9.51,22.57-24.06,24.18-45.8L333,444c.29-3.59.57-7-3.15-9a9.54,9.54,0,0,0-1.27.65c-1.45.82-3.09,1.76-5.3,0-9.41-7.51-20.54-7.45-32.08-6.68-12.07.8-18.29,5.37-20.18,14.81-.58,2.9-1.8,3.91-2.72,4.24s-2.33.35-4.38-1.29a77,77,0,0,0-12.22-7.52c-6.69-3.56-13.6-7.24-18.36-13.86-3.6-.81-4.86-3.56-6.08-6.22-.33-.72-.68-1.47-1.06-2.15a12.22,12.22,0,0,0-1.5-2.12c-1.33-1.27-2.45-1.81-3.21-1.53s-1.3,1.45-1.5,3.3c-.25,2.3.58,4.58,1.39,6.79.16.44.33.89.48,1.33a33.29,33.29,0,0,0,2.49,5,115.91,115.91,0,0,0,8.79,12.64c1.53.23,2.34,1.75,3,3a10,10,0,0,0,1,1.67l1.73,2.12c10.31,12.63,21,25.68,34.78,35.24l1.12.71.76.47c3.22,2,6,3.75,9.49,1.12s2.61-5.93,1.44-9.45c-.33-1-.64-2-1-3-.83-2.62-1.69-5.34-2.78-7.91l.92-.4c1.4,3.23,2.49,6.62,3.54,9.9l.16.48c1.11,3.46,2.63,8.2-1.9,11.44-4.19,3-7.64.66-11-1.59l-.42-.29-1-.65c-11.94-7.68-21-18.48-29.74-28.94l-2.71-3.21c-2.69-3.19-5.42-6.43-8-9.77a3.54,3.54,0,0,0-1.22.34c-2.38,1.11-2.25,4.13-1.87,6.63.84,5.56,3,11.07,6.87,17.33a52.78,52.78,0,0,0,4.14,5.59,41.37,41.37,0,0,1,5.61,8.22l-.85.51c-3.4-4.69-3.56-4.91-7-5.87-.26,1.13-.49,2.27-.72,3.4-1.55,7.64-3.15,15.54-11.58,20.17-4.84,2.66-9.74,5.42-14.47,8.09C194.09,517.67,176,527.88,156.69,535c-7.5,2.75-15.13,2.22-22.68-1.59-.61-.3-1.21-.64-1.82-1-2.82-1.58-5.49-3.07-8.82-1.63-1.89,2.22-.8,4.16.36,6.22.23.4.46.81.66,1.21C127.91,545.22,133.76,550.28,139,554.47Z"/><path class="cls-4" d="M66.75,105C71,72.54,79.55,41.47,95.86,12.86A34.81,34.81,0,0,1,105.5,1.62C108-.17,110.69,0,111.81,3.46c1.21,3.76,2.59,7.59,3,11.48,1.16,11.18,2.74,22.35,2.47,33.65a22.59,22.59,0,0,1-.14,12.6c-1.33,1.64-3.25,2.4-5.06,3.3-15.5,6.76-26,19.2-36.14,32-2.27,2.86-3.62,6.38-6.51,8.77A2.91,2.91,0,0,1,66.75,105Z"/><path d="M68.37,106a3.6,3.6,0,0,1-1.88-.56l-.28-.17,0-.32C71,69,80.51,38.79,95.43,12.61a35.13,35.13,0,0,1,9.77-11.4,5,5,0,0,1,4.39-1,4.4,4.4,0,0,1,2.69,3.14l.47,1.43a49.73,49.73,0,0,1,2.55,10.14c.21,2.08.44,4.15.67,6.22,1,9,2,18.22,1.8,27.44a23,23,0,0,1-.16,12.8l-.09.16A12.21,12.21,0,0,1,113,64.58l-.74.35C97.24,71.5,87.1,83.25,76.32,96.8a34.32,34.32,0,0,0-2.26,3.34,21.38,21.38,0,0,1-4.32,5.5l-.14.08A3.42,3.42,0,0,1,68.37,106Zm-1.08-1.26a2.37,2.37,0,0,0,1.88.12,20.33,20.33,0,0,0,4-5.2,36.48,36.48,0,0,1,2.33-3.44C86.4,82.52,96.63,70.68,111.87,64l.73-.36a11.31,11.31,0,0,0,4.08-2.73,22.08,22.08,0,0,0,.11-12.23l0-.06v-.07c.22-9.17-.8-18.42-1.79-27.37-.23-2.07-.46-4.15-.68-6.22a48.5,48.5,0,0,0-2.5-9.93l-.47-1.45a3.54,3.54,0,0,0-2-2.49,4,4,0,0,0-3.49.9A34,34,0,0,0,96.3,13.11C81.49,39.09,72,69.05,67.29,104.69Z"/><path class="cls-5" d="M365.3,146.75c17.32,4.06,33,12,48.46,20.46a19,19,0,0,1,3.25,2.31c4.83,4.22,4.56,6.88-1.32,9.36-8.33,3.52-17.29,4.65-26.14,6.13-24.12,4-48.38,3.3-72.65,2a2.09,2.09,0,0,1-.58-1.64c.06-.59.16-.89.27-.89,2.75-3.25,6.58-5,10.08-7.19,13.35-7.87,26.27-16.24,34.88-29.68C362.67,146.7,363.77,145.75,365.3,146.75Z"/><path d="M348.87,188.54c-10.87,0-21.59-.49-32-1.06h-.21l-.14-.16a2.58,2.58,0,0,1-.7-2c.05-.43.11-1,.48-1.26a28.45,28.45,0,0,1,7.59-5.68c.84-.5,1.69-1,2.51-1.52,13.4-7.9,26.13-16.09,34.73-29.52l.22-.21c1.07-.85,2.4-1.9,4.14-.82,17.88,4.2,33.77,12.43,48.51,20.5a18.63,18.63,0,0,1,3.34,2.36c2.66,2.33,3.78,4.2,3.51,5.87s-1.84,3-5,4.33c-7.31,3.08-15.18,4.36-22.79,5.59l-3.46.57A246.22,246.22,0,0,1,348.87,188.54Zm-31.72-2c23.15,1.26,47.79,2.13,72.32-2,1.15-.2,2.31-.39,3.47-.57,7.55-1.23,15.36-2.49,22.56-5.53,2.73-1.15,4.16-2.32,4.36-3.57s-.83-2.9-3.18-4.95a18.14,18.14,0,0,0-3.16-2.25c-14.7-8-30.55-16.25-48.34-20.42l-.16-.07c-1.12-.73-1.89-.2-3,.72l0,0c-8.72,13.57-21.54,21.83-35,29.77-.82.52-1.67,1-2.53,1.52-2.64,1.55-5.37,3.15-7.41,5.56l-.08.09a4.43,4.43,0,0,0-.08.53A1.47,1.47,0,0,0,317.15,186.5Z"/><path class="cls-6" d="M383.32,371.07l.27-10.23c.93-3.11,0-6.36.7-9.49q1-12.93,2-25.87c.54-6.86,3.53-10.92,9-14.31A277.54,277.54,0,0,1,450,284.74c41.14-14.25,82.22-28.74,124.63-38.89,10.67-2.55,21.47-4.55,32.22-6.75,2-.4,4-.67,5.78.71,1.08,3.54-1.07,6.46-2.15,9.47-12.12,33.8-23.72,67.77-33.48,102.33-1.49,5.29-4.63,6.8-9.31,7-15.66.59-31.16,2.8-46.71,4.48-29.77,3.22-59.35,7.82-88.88,12.71-11.55,1.92-11.48,2.38-13.22,14.85-.23,1.66-.38,3.32-2,4.32a6.93,6.93,0,0,1-2-2.87c-2-15.57.82-19.66,16.29-22.27,41.91-7.08,84-12.81,126.38-16.27,4.28-.35,8.62-.57,12.16-3.48,4.83-8.84,7.1-18.63,10.28-28.07,7.33-21.76,13.48-43.89,21.72-65.35,3.89-10.13,3-10.85-7.91-8.79a543.8,543.8,0,0,0-69.47,18.23c-39.47,13-79.82,23.75-116.32,44.51-5.36,3.05-11.93,4.72-14.51,11.37a204,204,0,0,0-3.5,40.74c.06,4.88.95,10.11-3,14.21C381.94,377.37,385.27,372.56,383.32,371.07Z"/><path d="M416.86,395.56l-.28-.24a7.6,7.6,0,0,1-2.16-3.07l0-.11c-2.06-15.92,1.06-20.19,16.7-22.83,45.84-7.75,87.19-13.07,126.42-16.28l.62,0c4.09-.33,8-.64,11.19-3.25,3.51-6.46,5.7-13.55,7.81-20.41.76-2.47,1.55-5,2.39-7.5,2.64-7.84,5.16-15.85,7.61-23.6,4.34-13.78,8.84-28,14.11-41.77,1.75-4.54,2.59-7.37,1.73-8.4s-3.86-.71-9.08.28a541.18,541.18,0,0,0-69.4,18.21c-7.31,2.41-14.78,4.79-22,7.08C470.77,283.7,438,294.13,408.27,311c-1.2.68-2.47,1.31-3.71,1.91-4.44,2.16-8.64,4.21-10.58,9.21a203.81,203.81,0,0,0-3.47,40.55c0,.7,0,1.41.06,2.12.16,4.32.32,8.79-3.22,12.45l-.13.13-.19,0a3.49,3.49,0,0,1-2.81-.63c-.79-.75-.76-1.89-.72-3s.06-1.88-.49-2.3l-.2-.16.3-10.61a15.82,15.82,0,0,0,.41-4.88,18.67,18.67,0,0,1,.29-4.58c.51-6.77,1-13.62,1.58-20.46l.42-5.34c.51-6.62,3.28-11,9.26-14.7a277,277,0,0,1,54.8-26.48l6.32-2.19c38.39-13.3,78.09-27.07,118.35-36.7,7.87-1.89,15.94-3.5,23.74-5.05,2.84-.57,5.67-1.13,8.5-1.71,2.05-.42,4.21-.7,6.19.8l.12.1,0,.16c.87,2.86-.22,5.29-1.27,7.65-.33.73-.64,1.42-.89,2.13-10,28-22.9,64.88-33.47,102.3-1.41,5-4.24,7.12-9.77,7.33-11.82.45-23.74,1.84-35.28,3.18-3.8.44-7.6.89-11.4,1.3-30.84,3.33-60.93,8.08-88.85,12.71-11,1.83-11.08,2.06-12.74,14l-.1.68c-.21,1.58-.46,3.36-2.2,4.44ZM415.38,392A6.31,6.31,0,0,0,417,394.3c1.06-.83,1.24-2.08,1.43-3.51l.1-.68c1.69-12.15,1.79-12.88,13.57-14.83,27.94-4.63,58-9.38,88.91-12.72,3.79-.41,7.59-.85,11.38-1.29,11.56-1.35,23.51-2.74,35.36-3.19,4.24-.16,7.36-1.34,8.85-6.6C587.13,314,600,277.1,610,249.11c.27-.74.6-1.48.92-2.2,1-2.24,1.94-4.36,1.27-6.8-1.61-1.14-3.4-.9-5.25-.52-2.83.58-5.67,1.14-8.5,1.71-7.79,1.55-15.85,3.16-23.7,5C534.56,256,494.89,269.72,456.52,283l-6.33,2.19a276.05,276.05,0,0,0-54.6,26.38c-5.74,3.54-8.29,7.58-8.79,13.93l-.41,5.33q-.81,10.27-1.6,20.54a18.12,18.12,0,0,0-.27,4.41,17.16,17.16,0,0,1-.43,5.12l-.27,9.93a3.85,3.85,0,0,1,.68,2.95c0,.93-.06,1.8.41,2.24a2.5,2.5,0,0,0,1.85.38c3.11-3.33,3-7.53,2.81-11.58,0-.72-.05-1.44-.06-2.14A205,205,0,0,1,393,321.86c2.11-5.46,6.68-7.69,11.11-9.84,1.21-.6,2.47-1.21,3.64-1.88,29.79-16.94,62.65-27.38,94.43-37.47,7.22-2.3,14.68-4.67,22-7.08a541.64,541.64,0,0,1,69.54-18.24c6-1.13,8.83-1.39,10,.06s.45,4.17-1.56,9.4c-5.27,13.71-9.76,27.94-14.1,41.71-2.44,7.75-5,15.77-7.61,23.62-.84,2.47-1.62,5-2.38,7.47-2.14,6.94-4.36,14.12-7.94,20.68l-.12.15c-3.49,2.87-7.72,3.21-11.82,3.54l-.62,0c-39.2,3.2-80.53,8.52-126.33,16.26C416.24,372.83,413.41,376.68,415.38,392Z"/><path class="cls-7" d="M416.83,393.41c0,.51.05,1,.08,1.53.91,11.73-2.23,23.08-3.19,34.64-.44,5.22-3.08,5.87-7.32,5.26-9.2-1.33-18.39-2.76-27.63-3.68-6.41-.63-6.72-.2-7,6.33-.37,8.3-.4,16.62-.6,24.94-.28,11.65-.28,11.64-10.85,8.09-4.41-1.49-8.78-3-13.23-4.4-6.71-2-6.95-1.88-9.79,4.28-1.94,4.2-3.85,8.4-5.78,12.59-3.46,1.62-7.07,5.14-10.56.6-2.81-3.67.92-6,2.77-8.54,6.39-8.76,7.15-19.12,8.2-29.33.39-3.84,1.07-7.33,5.63-5.59,9.9,3.78,10.67-1.92,10.49-9.2a19.44,19.44,0,0,1,.36-5.94c2.52-3.76,5.06-2.42,7.18.25,4.37,5.5,8.18,7.36,14.67,1.8,5.46-4.68,12.94-1,19.38-.37,18.68,1.91,18.34,2.14,20.77-16.38C411.16,404.41,408.84,396.76,416.83,393.41Z"/><path d="M324.76,486.33a5.22,5.22,0,0,1-4.21-2.43c-2.48-3.23-.3-5.65,1.45-7.59.48-.53.93-1,1.31-1.55,6-8.23,7-18.08,7.95-27.61l.15-1.48c.26-2.5.65-5,2.3-6.05,1-.62,2.31-.6,4,0,3.65,1.39,6.16,1.54,7.69.47,1.92-1.37,2.24-4.66,2.13-9.18l0-.71a17.3,17.3,0,0,1,.4-5.39l.07-.14c1.09-1.63,2.3-2.49,3.58-2.54,1.44-.05,2.88.85,4.4,2.76,2.59,3.26,4.62,4.74,6.78,4.94s4.42-.85,7.17-3.21c4.24-3.63,9.53-2.5,14.65-1.4a49.29,49.29,0,0,0,5.11.91l.76.08c8.66.89,13,1.34,15.34-.49s2.89-6.11,4-14.65l.12-.89a35.27,35.27,0,0,0,.2-4.21c.05-4.85.1-10.36,6.55-13.06l.65-.27,0,.71c0,.51.05,1,.08,1.53.6,7.67-.55,15.29-1.66,22.66-.59,3.94-1.2,8-1.53,12-.2,2.36-.86,4-2,4.89-1.56,1.24-3.84,1.11-5.87.82l-5-.72c-7.41-1.08-15.08-2.2-22.65-2.95-3.11-.31-4.63-.34-5.38.32s-.94,2.28-1.09,5.53c-.25,5.58-.34,11.27-.44,16.77-.05,2.72-.09,5.44-.16,8.16-.15,6.21-.21,9.05-1.82,10.17s-4.29.2-9.69-1.62c-1.23-.41-2.44-.83-3.66-1.25-3.12-1.06-6.35-2.17-9.55-3.14-6.45-2-6.45-2-9.2,4q-2,4.38-4,8.78l-1.83,4-.16.07c-.63.3-1.25.65-1.91,1C328.21,485.36,326.5,486.33,324.76,486.33Zm10.66-46.16a2.26,2.26,0,0,0-1.19.3c-1.26.78-1.59,3-1.82,5.3l-.15,1.48c-1,9.66-2,19.65-8.15,28.1a20.4,20.4,0,0,1-1.37,1.63c-1.81,2-3.37,3.74-1.4,6.31,2.58,3.35,5.08,1.94,8,.3.59-.33,1.2-.68,1.81-1L332.8,479q2-4.39,4-8.78c3-6.44,3.46-6.65,10.4-4.55,3.22,1,6.45,2.09,9.58,3.16l3.66,1.24c4.92,1.66,7.63,2.57,8.79,1.76s1.27-3.88,1.4-9.39c.07-2.71.11-5.43.16-8.15.1-5.5.19-11.2.44-16.79.15-3.33.29-5.26,1.44-6.25s3.06-.86,6.13-.56c7.59.76,15.27,1.88,22.7,3l5,.72c2.57.37,4.1.19,5.1-.61s1.48-2.12,1.65-4.2c.34-4,.95-8.14,1.55-12.1,1.09-7.31,2.23-14.88,1.64-22.45,0-.28,0-.54,0-.81-5.19,2.52-5.23,7.06-5.28,11.85a36.2,36.2,0,0,1-.21,4.33l-.11.89c-2.32,17.7-2.51,17.85-20.44,16l-.76-.07a51.58,51.58,0,0,1-5.22-.93c-4.88-1.05-9.93-2.13-13.79,1.18-3,2.58-5.53,3.68-7.92,3.45s-4.68-1.82-7.46-5.31c-1.29-1.63-2.49-2.44-3.58-2.39-.93,0-1.86.72-2.75,2a16.83,16.83,0,0,0-.34,5l0,.71c.09,3.91,0,8.22-2.56,10-1.81,1.29-4.63,1.17-8.61-.34A5.48,5.48,0,0,0,335.42,440.17Z"/><path class="cls-8" d="M66.55,376.57c-14.46-8-28.63-16.38-41.24-27.15-.87-2.95-3.55-4.37-5.42-6.49-1.7-1.93-2.33-3.84.48-5.43,5-1.65,9.11.71,13.06,3.23,23.33,14.89,48.14,26.85,73.66,37.45a84.38,84.38,0,0,1,20,11.12c3,2.38,7.74,5.12,5.51,9.37s-6.93,2.5-10.71.77C102.75,393.49,85.26,383.55,66.55,376.57Z"/><path d="M128.22,401.77a16.86,16.86,0,0,1-6.55-1.88c-11-3.4-21.6-8.22-31.89-12.88-7.6-3.44-15.46-7-23.41-10l-.06,0C52.46,369.38,37.87,360.81,25,349.8l-.11-.1,0-.14c-.56-1.89-1.93-3.12-3.37-4.41a24.54,24.54,0,0,1-1.94-1.88c-1.24-1.41-1.73-2.57-1.55-3.66a3.81,3.81,0,0,1,2.15-2.54c5.18-1.71,9.21.45,13.57,3.24,21,13.41,44.41,25.29,73.59,37.41,8.46,3.51,14.85,7.06,20.11,11.19l1.11.84c3,2.24,6.7,5,4.54,9.15A5.07,5.07,0,0,1,128.22,401.77ZM66.76,376.11c8,3,15.83,6.54,23.43,10,10.27,4.65,20.88,9.45,31.84,12.86,4.16,1.9,8.21,3.13,10.12-.52,1.77-3.38-1.29-5.67-4.25-7.89l-1.13-.86c-5.19-4.06-11.5-7.58-19.87-11.05-29.24-12.14-52.67-24.05-73.74-37.49-4.15-2.64-8-4.71-12.63-3.17A2.84,2.84,0,0,0,19,339.77c-.13.76.3,1.69,1.31,2.83a21.1,21.1,0,0,0,1.86,1.8,10.92,10.92,0,0,1,3.61,4.73C38.53,360,53,368.54,66.76,376.11Z"/><path class="cls-9" d="M317.1,185.11c-.08.62-.15,1.25-.2,1.87-17.15,1.61-33.76-2.22-50.47-5-3.25-.54-6.48-1.54-10.22-.29,6.4,11.47,5.8,24.49,8.79,36.7s5.91,24.57,13,36.36a284.59,284.59,0,0,1,44.12-25.07,6.68,6.68,0,0,0,2.45-1.69c3.63-4.53,7.19-8.08,11.33-.47a24.46,24.46,0,0,0,2.54-1.1,2.77,2.77,0,0,1,1.47,2.46,3.63,3.63,0,0,1-3.15,3.37c-18.52,2.32-33.16,12.74-48.06,22.7-4.73,3.17-6.12,7-5.6,12.66,2.47,27.52-13,47.15-29.84,66-1.34,1.5-3.39,2.85-5.29,1.58-2.51-1.68-1.28-4.24-.27-6.28,2.23-4.5,5.48-8.33,8.69-12.15s3.87-6.78-.36-11c-16.5-16.33-13.32-45.82,6.14-59,2.73-1.86,4.69-2.78,3-6.78-4.34-10.18-5.66-21.2-7.67-32-1.78-9.53-3.18-19-9.71-26.86-1.58-1.89-2.15-4.24.77-5.85,3.86-1.63,7.77-.89,11.69-.34,16.61,2.34,33,6.46,49.82,7.12C312.72,182.2,315.33,182.77,317.1,185.11Z"/><path d="M249.61,336.24a3.39,3.39,0,0,1-1.9-.6c-2.9-1.94-1.42-4.93-.44-6.91,2.2-4.45,5.43-8.29,8.54-12l.21-.25c3-3.53,3.79-6.21-.32-10.29-7.82-7.73-11.68-18.86-10.61-30.52a39.42,39.42,0,0,1,16.82-29.29l.57-.39c2.44-1.63,3.66-2.45,2.24-5.79-3.55-8.33-5.12-17.33-6.63-26-.35-2-.7-4-1.07-6l-.34-1.82c-1.66-9.05-3.24-17.6-9.26-24.82a4.81,4.81,0,0,1-1.37-3.87,4.09,4.09,0,0,1,2.28-2.74c3.76-1.58,7.52-1,11.16-.52l.84.12c5.64.8,11.34,1.82,16.86,2.8,10.72,1.91,21.81,3.89,32.91,4.32,2.39.09,5.38.54,7.39,3.21l.13.16,0,.2c-.08.62-.14,1.23-.19,1.85l0,.42-.42,0c-14.46,1.36-28.73-1.17-42.53-3.61q-4-.72-8.07-1.4c-.55-.09-1.09-.2-1.63-.3-2.46-.47-5-.95-7.77-.19,4,7.51,5.2,15.74,6.33,23.71.59,4.15,1.2,8.45,2.21,12.57l.22.91c2.83,11.58,5.77,23.55,12.46,34.85,12.52-8.81,26.44-16.7,43.76-24.8a6.41,6.41,0,0,0,2.27-1.56c2.16-2.69,4.48-5.31,7.05-5.08,1.74.16,3.34,1.57,4.91,4.33l1.1-.5,1-.46.24-.1.22.13a3.28,3.28,0,0,1,1.71,2.88c-.36,2.26-1.67,3.64-3.59,3.88-17.37,2.17-31.6,11.72-45.37,21L289,255.36c-4.34,2.9-5.9,6.44-5.39,12.2,2.47,27.49-12.76,47.11-30,66.42A5.7,5.7,0,0,1,249.61,336.24Zm4.28-161.42a13,13,0,0,0-5.12,1,3.08,3.08,0,0,0-1.73,2,3.94,3.94,0,0,0,1.15,3c6.19,7.42,7.86,16.5,9.47,25.28l.34,1.81c.37,2,.72,4,1.08,6.05,1.5,8.65,3.05,17.59,6.56,25.82,1.74,4.1-.18,5.39-2.61,7l-.56.37a38.47,38.47,0,0,0-16.39,28.56c-1,11.37,2.72,22.2,10.32,29.72,4.62,4.58,3.58,7.85.39,11.64l-.21.26c-3.08,3.66-6.26,7.45-8.42,11.8-1.17,2.37-1.91,4.29.1,5.63s3.87-.63,4.64-1.49c17-19.15,32.15-38.58,29.72-65.67-.56-6.18,1.13-10,5.82-13.12l2.48-1.66c13.86-9.3,28.19-18.92,45.79-21.12a3.24,3.24,0,0,0,2.73-3,2.26,2.26,0,0,0-1-1.81l-.74.34c-1.8.82-1.94.89-2.19.43-1.44-2.64-2.9-4-4.33-4.17-2.06-.2-4.19,2.23-6.17,4.71a7.45,7.45,0,0,1-2.63,1.84c-17.47,8.17-31.47,16.12-44.05,25l-.44.32-.28-.47c-7-11.56-10-23.77-12.85-35.58l-.23-.91c-1-4.17-1.63-8.49-2.22-12.67-1.15-8.07-2.33-16.41-6.51-23.91l-.3-.52.58-.19c3.24-1.09,6.09-.55,8.84,0l1.61.29c2.7.45,5.39.93,8.08,1.4,13.61,2.41,27.67,4.9,41.85,3.64,0-.42.08-.84.13-1.27-1.76-2.19-4.39-2.57-6.51-2.65-11.17-.43-22.29-2.42-33.05-4.34-5.5-1-11.2-2-16.82-2.79l-.84-.12A38.61,38.61,0,0,0,253.89,174.82Z"/><path class="cls-10" d="M365.3,146.75l-2.67,2.61c-2.88,1.43-5.82.94-8.79.35-20.23-4.06-40.61-7.45-61.17-8.91-16.29-1.16-32.48,1.49-48.43,5-9.09,2-18.08,4.5-27.13,6.68-5.91,1.42-11.94,2.15-17.78.38-21.62-6.56-42.24-1.48-62.51,5.55-12.25,4.25-24,9.89-34.41,17.88-2.83,2.16-5.87,4.68-9.91,2.38-.48-1.29-.76-2.75.09-3.82,15.55-19.54,14-43.55,17.42-66.28,2.12-14.14,2.07-28.39,2.56-42.61a7.94,7.94,0,0,1,2-4.51c4.34-3.55,1-8.74,2.74-12.85,1.77,3.43,1.42,7.19,1.3,10.79-1.18,33.9-2,67.84-11,100.9a4.34,4.34,0,0,0,.32,3.93c3.68-.35,6.57-2.71,9.77-4.25,21.9-10.56,44.62-17.27,69.28-15.05,2,.18,4.12-.11,6,.5,11.56,3.85,22.5,2,34-1.55a213.84,213.84,0,0,1,66.95-9.15c12.39.2,24.37,3.38,36.6,4.66,7.93.84,15.78,2.33,23.66,3.57C358.05,143.56,362,144.2,365.3,146.75Z"/><path d="M95.69,180.08a7,7,0,0,1-3.44-1L92.1,179l-.07-.17c-.69-1.89-.64-3.29.16-4.31,12-15,13.77-33.1,15.52-50.57.51-5.09,1-10.35,1.8-15.47,1.7-11.32,2-22.91,2.31-34.12.08-2.81.16-5.63.25-8.44a8.32,8.32,0,0,1,2.07-4.8l.07-.08c2.43-2,2.27-4.52,2.11-7.21a12.07,12.07,0,0,1,.49-5.44l.41-1,.5,1c1.66,3.23,1.52,6.69,1.39,10l-.18,5c-1.1,32.07-2.24,65.23-10.84,97.06a4,4,0,0,0,.09,3.27,17.83,17.83,0,0,0,6.57-2.69c.88-.51,1.8-1,2.74-1.48,25.46-12.28,47.56-17.08,69.54-15.1.66.06,1.36.07,2,.07a13.28,13.28,0,0,1,4,.45c12.14,4,23.35,1.65,33.65-1.54a214.83,214.83,0,0,1,67.11-9.18c7.62.13,15.18,1.38,22.49,2.6,4.63.77,9.41,1.57,14.15,2.07,5.74.6,11.53,1.56,17.13,2.49,2.19.37,4.37.73,6.56,1.07,3.93.62,8,1.26,11.42,3.91l.46.35-3.21,3.11c-2.93,1.46-5.86,1-9.11.39-24.31-4.88-43.16-7.63-61.11-8.9-17.05-1.22-34,1.83-48.28,5-5.55,1.22-11.16,2.66-16.58,4-3.45.88-7,1.8-10.54,2.65-5,1.2-11.57,2.33-18,.37-21.67-6.58-42.7-1.22-62.2,5.54-13.55,4.71-24.76,10.53-34.28,17.8l-.27.22C100.45,178.41,98.28,180.08,95.69,180.08Zm-2.78-1.76c3.54,1.9,6.27-.2,8.92-2.23l.28-.21c9.59-7.34,20.9-13.21,34.55-17.95,19.66-6.82,40.88-12.22,62.82-5.56,6.24,1.89,12.64.79,17.51-.39,3.52-.84,7.08-1.76,10.53-2.64,5.43-1.39,11-2.82,16.62-4,14.37-3.16,31.38-6.22,48.56-5,18,1.28,36.88,4,61.24,8.92,3,.61,5.77,1,8.39-.27l2.2-2.15c-3.14-2.21-6.88-2.8-10.51-3.37-2.19-.34-4.37-.71-6.56-1.07-5.59-.93-11.36-1.89-17.07-2.49-4.77-.5-9.57-1.3-14.21-2.07-7.28-1.21-14.81-2.47-22.34-2.59a214,214,0,0,0-66.8,9.13c-10.47,3.24-21.86,5.67-34.26,1.54a12.46,12.46,0,0,0-3.73-.4c-.69,0-1.41,0-2.11-.07-21.79-2-43.72,2.8-69,15-.9.43-1.8,1-2.68,1.45-2.23,1.27-4.53,2.59-7.27,2.85l-.29,0-.16-.24a4.81,4.81,0,0,1-.39-4.35c8.57-31.71,9.7-64.81,10.8-96.83l.18-5c.11-2.78.23-5.64-.74-8.3a15.86,15.86,0,0,0-.05,3.72c.17,2.81.35,5.71-2.43,8A7.41,7.41,0,0,0,113.07,66c-.1,2.82-.17,5.63-.25,8.44-.3,11.24-.61,22.86-2.32,34.24-.76,5.09-1.29,10.34-1.8,15.42-1.76,17.61-3.58,35.82-15.72,51.1C92.42,175.85,92.4,176.86,92.91,178.32Z"/><path class="cls-11" d="M18.6,339.26l6.84,7.05c1,1.08,1.38,2.13-.14,3.1-3.85-3.13-7.57-6.46-13.11-6.1a2.83,2.83,0,0,1-3.29-2.9c-.06-4.54-1.37-7.57-6.71-7.81-1.85-.08-2-2.45-1.23-4,2.25-4.3,6-8.49,0-12.78A2.27,2.27,0,0,1,.65,314c5.46-2.56,5.26-7.16,5-12.15-.07-1.18,2.83-1.44,4.4-1.17,6,1.05,9.24-1.51,9.47-8.56,6.88,5.13,13.79,4.64,20.78,4.41,8.26-.27,16.55-.16,24.82.18,3.93.17,6.09-1.61,7.71-4.74,4.88.83,3.8,4.66,3.74,7.78-.16,8.86,4.35,15.75,9.25,22.47,1.31,1.8,2.81,4.19,5.58,2.93,2.52-1.15,2.43-3.78,2.15-6.09-.79-6.61-2.31-13-6.05-18.7-2.14-3.27-4.91-6.31-5.12-10.56a2.82,2.82,0,0,1,1.91-1.9c5.24-.24,7.73,3.59,9.86,7.27,5.65,9.75,8.69,20.38,6.21,31.52-1.42,6.39.47,10.05,5.37,13.44,7.72,5.32,16.11,9.33,24.57,13.23,2.41,1.11,5,1.93,7,3.71,1.06.91,1.95,2.05,1.48,3.39s-1.89,1.8-3.25,1.94a17.16,17.16,0,0,1-8.69-1.88c-25.11-11.2-48.22-24.59-57.52-53-1-3.05-2.79-5.4-6.25-5.62-13.61-.83-27.35-.95-40.68,1.52-11.9,2.21-16.75,15.31-11.19,26.62C13,333.66,15.15,337,18.6,339.26Z"/><path d="M134.39,363a19.11,19.11,0,0,1-7.74-2c-22.86-10.19-48.07-23.56-57.8-53.27-1.12-3.43-3-5.1-5.8-5.28-11.33-.69-26.17-1.15-40.56,1.52a15.32,15.32,0,0,0-11.2,8.34,19.85,19.85,0,0,0,.37,17.56c1.44,2.92,3.56,6.59,7.21,9l.09.07,6.84,7a2.78,2.78,0,0,1,1,2.2,2.39,2.39,0,0,1-1.25,1.68l-.3.19-.92-.74c-3.64-3-7.09-5.81-12.13-5.48a3.68,3.68,0,0,1-2.78-.88,3.35,3.35,0,0,1-1-2.51c-.05-4.23-1.13-7.09-6.23-7.32A2.07,2.07,0,0,1,.38,332a4.06,4.06,0,0,1,.14-3.69c.31-.6.65-1.19,1-1.78,2.12-3.72,4-6.93-.88-10.37-.57-.4-.58-1.69-.55-2a.74.74,0,0,1,.36-.66c5.21-2.44,5-6.93,4.7-11.67a1.2,1.2,0,0,1,.44-1c1-.84,3.27-.91,4.54-.69,2.84.5,4.91.16,6.36-1s2.41-3.61,2.53-7.07l0-1,.76.57c6.43,4.79,12.78,4.57,19.51,4.34l1,0c7.67-.25,15.8-.19,24.86.18,3.39.14,5.55-1.19,7.24-4.47l.17-.33.36.06c4.62.79,4.41,4.19,4.23,6.93,0,.46-.06.91-.07,1.35-.16,8.67,4.24,15.44,9.15,22.18l.23.31c1.46,2,2.66,3.4,4.74,2.45s2.2-2.81,1.86-5.57c-1-7.92-2.79-13.62-6-18.48-.4-.62-.82-1.22-1.25-1.83-1.85-2.66-3.77-5.4-3.95-9v-.1l0-.09a3.36,3.36,0,0,1,2.24-2.22l.13,0c5.37-.25,7.94,3.42,10.31,7.52,6.41,11.05,8.52,21.78,6.27,31.88-1.3,5.84.15,9.46,5.16,12.92,7.66,5.28,16,9.25,24.5,13.18.54.25,1.1.49,1.66.73a20.49,20.49,0,0,1,5.48,3.06c.57.49,2.3,2,1.62,3.94-.46,1.29-1.73,2.07-3.67,2.27Q135,363,134.39,363Zm-87-62.07c5.66,0,11,.25,15.71.54,3.26.2,5.45,2.15,6.7,6,9.6,29.32,34.58,42.56,57.25,52.67a16.78,16.78,0,0,0,8.43,1.84c1.55-.15,2.5-.69,2.82-1.6s-.1-1.8-1.32-2.85a19.32,19.32,0,0,0-5.23-2.9c-.56-.24-1.13-.48-1.68-.74-8.58-3.95-16.92-7.94-24.64-13.27-5.35-3.69-7-7.73-5.58-14,2.23-10,.21-20.18-6.15-31.16-2.21-3.81-4.6-7.2-9.34-7a2.34,2.34,0,0,0-1.5,1.49c.2,3.25,2,5.84,3.77,8.35.43.62.86,1.24,1.27,1.86,4.19,6.4,5.47,13.47,6.13,18.91.22,1.82.62,5.2-2.44,6.6s-4.71-1-6-2.77l-.23-.31c-5-6.89-9.5-13.81-9.34-22.78,0-.46,0-.93.07-1.41.18-2.72.33-5.08-3-5.8-1.85,3.39-4.33,4.84-8,4.68-9-.37-17.14-.43-24.78-.18l-1,0c-6.35.22-12.91.45-19.38-4-.24,3.27-1.18,5.53-2.85,6.9s-4,1.76-7.16,1.22c-1.21-.21-3.13-.06-3.71.45-.11.1-.1.16-.1.19.26,4.81.54,9.79-5.08,12.54a2.57,2.57,0,0,0,.18,1.05c5.55,3.93,3.2,8,1.14,11.64-.34.58-.67,1.17-1,1.75a3.11,3.11,0,0,0-.15,2.74,1.07,1.07,0,0,0,1,.56c6.24.28,7.13,4.36,7.18,8.31a2.41,2.41,0,0,0,.71,1.78,2.68,2.68,0,0,0,2.05.62c5.43-.36,9.19,2.72,12.83,5.7l.33.28a1.21,1.21,0,0,0,.51-.75c0-.36-.21-.83-.75-1.38l-6.8-7c-3.83-2.54-6-6.33-7.52-9.36a20.91,20.91,0,0,1-.37-18.45A16.37,16.37,0,0,1,22.31,303,138.87,138.87,0,0,1,47.4,300.89Z"/><path class="cls-12" d="M338.46,226.41c4.87-5.13,4.27-3.9,10-1.1,4.89,2.37,5.31,7.78,9.7,9.84,1.81.84,1.51,2.68,1.3,4.36-.16,1.31-.73,3.22-.1,3.87,7.38,7.53,1.56,10.86-4.22,14.6-2.22,1.44-2.91,4.32-4,6.78-11.88,27.89-25.91,54.57-45.4,78-4,4.83-4.45,8.55-1.54,14,5.76,10.84,10.77,22.07,16,33.17A114.83,114.83,0,0,1,330.61,423a3.16,3.16,0,0,1-2.66.67c-2.75-1.29-3.34-4-4-6.52-5.22-19.35-14.23-37.09-23-55-2.21-4.51-5.17-6.42-9.75-6.75-1.91-3.52.67-5.75,2.63-7.73,20.9-21,34.14-47,47.37-73,4.11-7.4,7-15.33,11.78-22.57,3.54-5.39-1.46-12.22-5.22-17.43-2.08-2.89-5.11-5.08-8.13-7.08Z"/><path d="M328.58,424.23a3.58,3.58,0,0,1-.72-.07l-.13,0c-2.82-1.33-3.55-4.05-4.19-6.45l-.1-.39c-4.89-18.1-13.25-35.1-21.34-51.54l-1.64-3.33c-2.09-4.27-4.8-6.14-9.34-6.47l-.27,0-.13-.24c-2-3.64.44-6.05,2.37-8l.35-.34c20.88-21,34.3-47.41,47.27-72.91,1.65-3,3.13-6.06,4.56-9.06a112.55,112.55,0,0,1,7.25-13.56c3.32-5-1.34-11.5-5.09-16.69l-.12-.17c-2.1-2.92-5.23-5.12-8-7l-.08-.07-1.45-1.53.32-.34c4.18-4.41,4.71-4.35,8.22-2.45.65.35,1.43.77,2.38,1.24,2.62,1.27,4,3.34,5.32,5.34,1.21,1.82,2.35,3.55,4.37,4.5s1.82,3,1.61,4.71l0,.16c0,.32-.1.67-.17,1-.15.84-.37,2.12-.07,2.43,2.65,2.7,3.82,5.08,3.58,7.26-.36,3.26-3.74,5.43-7.31,7.74l-.58.37c-1.64,1.06-2.42,3.08-3.16,5-.2.52-.4,1-.61,1.52-14,32.79-28.41,57.61-45.48,78.12-3.89,4.68-4.28,8.2-1.47,13.48,4.38,8.25,8.4,16.87,12.28,25.21q1.86,4,3.73,8a114.68,114.68,0,0,1,10.38,33.2l0,.29-.23.18A3.73,3.73,0,0,1,328.58,424.23Zm-.48-1a2.65,2.65,0,0,0,2-.42,114.22,114.22,0,0,0-10.25-32.61q-1.87-4-3.74-8c-3.88-8.32-7.89-16.93-12.26-25.16-3-5.64-2.56-9.6,1.59-14.59,17-20.43,31.41-45.18,45.33-77.87.21-.48.4-1,.59-1.49.81-2.1,1.64-4.27,3.56-5.51l.58-.37c3.36-2.17,6.54-4.23,6.86-7,.2-1.86-.88-4-3.31-6.45-.66-.68-.42-2-.19-3.3.06-.35.12-.68.16-1l0-.16c.23-1.88.28-3.07-1-3.69-2.28-1.06-3.55-3-4.79-4.85s-2.54-3.84-4.92-5c-1-.47-1.75-.9-2.42-1.26-3.06-1.66-3.21-1.74-6.69,1.91l.76.8c2.83,1.88,6,4.14,8.21,7.18l.13.16c3.71,5.16,8.8,12.21,5.11,17.83a111.92,111.92,0,0,0-7.19,13.44c-1.44,3-2.92,6.12-4.57,9.1-13,25.56-26.46,52-47.45,73.14l-.35.35c-1.83,1.82-3.72,3.7-2.32,6.55,4.71.42,7.68,2.53,9.88,7L303,365.3c8.11,16.48,16.5,33.52,21.41,51.72l.11.39C325.15,419.79,325.75,422.05,328.1,423.19Z"/><path class="cls-13" d="M66.55,376.57c3-3.84,5.49-.24,7.65.9,10.54,5.58,21.22,10.75,32.54,14.59,5.29,1.79,11.08,1.71,16.07,4.51.9,17.9,1.69,35.8,1.38,53.74-.21,12.32.37,24.66-1.77,36.9-2.54,14.57.36,29.07.76,43.6.53,6.73,4.83,11.34,8.89,16.15,2.28,2.7,6,4.19,6.88,8.1-11.53-4.53-16.85-14.18-20.43-25.12a79.73,79.73,0,0,1-2.72-40.32c5.45-27.51-.16-54.95,1.28-82.37.29-5.49-2.32-8.51-7.37-10.32C94.68,391.54,80.61,384.05,66.55,376.57Z"/><path d="M139.64,555.87l-.88-.35c-6.62-2.6-15-7.85-20.71-25.43a80.53,80.53,0,0,1-2.74-40.56c3.32-16.75,2.51-33.78,1.73-50.24-.5-10.51-1-21.37-.46-32.07.26-5-1.91-8-7-9.82-15-5.38-29.25-13-43-20.28l-.73-.39.36-.47c2.64-3.38,5.09-1.54,6.88-.19a11.81,11.81,0,0,0,1.41,1c9.25,4.89,20.33,10.45,32.46,14.55a46.62,46.62,0,0,0,6.33,1.52c3.31.64,6.73,1.3,9.83,3l.24.14v.28c.91,18.09,1.69,35.82,1.38,53.77,0,2.79-.06,5.59-.06,8.38,0,9.39-.06,19.09-1.71,28.59-1.74,9.92-.91,20-.12,29.75.37,4.51.75,9.17.88,13.76.48,6.08,4.1,10.34,7.94,14.86l.83,1A19.41,19.41,0,0,0,135,549c1.88,1.55,3.82,3.16,4.42,5.93ZM67.33,376.42c13.64,7.25,27.75,14.73,42.55,20,5.54,2,8,5.42,7.7,10.82-.56,10.64,0,21.48.45,32,.79,16.53,1.6,33.61-1.74,50.48A79.47,79.47,0,0,0,119,529.78c3,9.33,7.72,19.47,19.17,24.42-.73-1.87-2.23-3.11-3.8-4.41a21.22,21.22,0,0,1-2.69-2.51l-.82-1c-3.77-4.43-7.67-9-8.18-15.45-.13-4.59-.51-9.23-.87-13.72-.81-9.82-1.63-20,.12-30,1.64-9.42,1.67-19.08,1.7-28.42,0-2.8,0-5.6.06-8.4.31-17.82-.46-35.44-1.36-53.43a32.47,32.47,0,0,0-9.28-2.79,47.89,47.89,0,0,1-6.47-1.55c-12.2-4.13-23.33-9.71-32.61-14.62a11.93,11.93,0,0,1-1.54-1C70.69,375.56,69.18,374.42,67.33,376.42Z"/><path class="cls-14" d="M82.92,289c6.15,8.61,12.43,17.16,13.11,28.3.13,2,.64,4.05.16,5.87-.72,2.74-.87,6.44-4.43,7.12-3,.57-4.62-2.35-6.18-4.35-7-8.94-13.75-18-11.12-30.5.22-1-1.06-2.32-1.65-3.49h.08C75.11,287.14,78.24,285.46,82.92,289Z"/><path d="M91,330.88c-2.42,0-3.94-2.07-5.18-3.76l-.64-.85c-6.53-8.4-13.94-17.92-11.2-30.91.1-.48-.42-1.27-.88-2a11.78,11.78,0,0,1-.73-1.21l-.09-.16.14-.55h.15c1.3-2.71,2.83-4.26,4.66-4.72s3.78.19,6,1.87l.11.11.38.54c6,8.35,12.15,17,12.82,28,0,.55.1,1.1.17,1.65a12.1,12.1,0,0,1,0,4.37c-.11.44-.21.9-.31,1.37-.54,2.44-1.2,5.49-4.51,6.12A5.08,5.08,0,0,1,91,330.88ZM73.41,292c.16.27.34.54.52.82.6.9,1.21,1.83,1,2.71-2.64,12.54,4.31,21.47,11,30.1.22.27.43.57.65.87,1.35,1.83,2.74,3.72,5,3.28,2.66-.5,3.19-3,3.71-5.35.1-.48.21-.95.32-1.4a11,11,0,0,0,0-4c-.06-.57-.13-1.14-.16-1.71-.66-10.76-6.75-19.27-12.64-27.5l-.34-.48c-1.93-1.45-3.64-2-5.09-1.65S74.58,289.56,73.41,292Z"/><path class="cls-15" d="M328.79,423a11.06,11.06,0,0,0,1.82,0c.84,8.49,3.26,15.73,13.56,16.94,4.4-6.3,2.3-13.52,2.52-20.27.44-13.49-2.51-12.92,12.71-12.57,5,.11,10-.12,15,.14,4.72.24,6.32-1.79,6.56-6.4.52-9.94,1.57-19.85,2.41-29.77,1.94,1.7,1.42,4.17,2,6.3,5.63,10,1.42,19.81-.81,29.58-.64,2.81-3.44,3.81-6.09,4.42a25,25,0,0,1-8.84.65c-10.5-1.38-17.92,1.86-20.53,12.9,0,2.31.11,4.63-.07,6.93-.28,3.55,1.36,7.73-1.3,10.51-3.09,3.24-6.66-.1-10-.78-3.83-.78-4.76,1.45-4.6,4.46.26,5-1.12,9.74-1.81,14.61a32.78,32.78,0,0,1-7,16.05c-1.38,1.77-3.77,3.39-2.12,5.93,2.09,3.21,4.46,1.41,6.71-.16.93-.64,1.85-.13,2.64.53-.42,2.64-2,4.67-4.64,4-6.73-1.6-12.11,1.8-17.85,4,4.21-5.31,8.74-10.4,12.56-16,8.4-12.25,10.21-25.92,7.65-40.34C325.59,431,325.65,427.05,328.79,423Z"/><path d="M307.47,492.23l1.15-1.45c1.31-1.66,2.66-3.3,4-4.93,2.9-3.54,5.91-7.2,8.53-11,7.81-11.41,10.3-24.43,7.6-39.82-3.61-3.85-3.73-8-.37-12.33l.17-.21.27,0a11.23,11.23,0,0,0,1.74,0l.49-.05.05.49c.76,7.78,2.86,15.14,12.82,16.45,3-4.44,2.68-9.46,2.4-14.31-.1-1.79-.2-3.64-.14-5.43.07-2.19.05-4,0-5.51,0-3.46-.05-5.37,1.08-6.49,1.35-1.33,3.92-1.26,10.12-1.11l2,.05c2.05,0,4.15,0,6.18,0,2.87,0,5.85,0,8.78.12,4.22.22,5.8-1.34,6-5.93.36-7.06,1-14.22,1.64-21.14.26-2.88.52-5.76.76-8.64l.08-1,.75.65c1.49,1.31,1.66,3,1.83,4.6a12.43,12.43,0,0,0,.3,1.89c4.75,8.5,2.55,16.89.43,25-.42,1.6-.85,3.26-1.22,4.88-.7,3.06-3.66,4.15-6.47,4.8a25.13,25.13,0,0,1-9,.65c-11.24-1.47-17.59,2.49-20,12.47,0,.7,0,1.39,0,2.09,0,1.58,0,3.21-.09,4.82a20.83,20.83,0,0,0,.11,3.33c.22,2.66.45,5.4-1.54,7.49-2.46,2.56-5.22,1.38-7.65.35a16.28,16.28,0,0,0-2.8-1,3.52,3.52,0,0,0-3.07.4c-.71.6-1,1.8-.93,3.54a44.23,44.23,0,0,1-1.08,10.41c-.26,1.4-.53,2.86-.74,4.3a33.31,33.31,0,0,1-7.1,16.29c-.27.34-.58.68-.88,1-1.46,1.61-2.28,2.71-1.22,4.33a3.06,3.06,0,0,0,1.86,1.52c1.22.23,2.61-.74,4-1.68l.19-.14c1.4-1,2.79.17,3.24.55l.22.18,0,.28a5.77,5.77,0,0,1-2.19,4,3.79,3.79,0,0,1-3.06.47c-5.3-1.26-9.68.64-14.32,2.66-1.07.47-2.15.94-3.24,1.36ZM329,423.52c-2.92,3.9-2.73,7.47.56,10.92l.11.11,0,.15c2.79,15.72.26,29-7.74,40.7-2.64,3.86-5.66,7.53-8.58,11.08-.93,1.13-1.87,2.27-2.79,3.41l1.42-.62c4.59-2,9.33-4.06,15-2.71a2.82,2.82,0,0,0,2.27-.33,4.62,4.62,0,0,0,1.71-3c-.77-.58-1.31-.67-1.81-.32L329,483c-1.52,1.06-3.09,2.16-4.72,1.84a4,4,0,0,1-2.51-2c-1.55-2.38,0-4.13,1.32-5.54.29-.32.58-.64.83-1a32.38,32.38,0,0,0,6.9-15.81c.21-1.46.48-2.93.74-4.35a43.06,43.06,0,0,0,1.07-10.17c-.11-2.1.31-3.52,1.27-4.35a4.48,4.48,0,0,1,3.93-.62,16.38,16.38,0,0,1,3,1.05c2.45,1,4.56,1.94,6.53-.13,1.69-1.75,1.48-4.16,1.27-6.7a21.63,21.63,0,0,1-.11-3.5c.13-1.56.11-3.17.09-4.73,0-.72,0-1.44,0-2.16l0-.11c2.47-10.48,9.36-14.82,21.08-13.29a24.35,24.35,0,0,0,8.66-.63c2.5-.59,5.14-1.53,5.72-4.05.37-1.64.8-3.3,1.22-4.91,2.08-7.94,4.23-16.15-.37-24.31l0-.12a12.7,12.7,0,0,1-.34-2.11,7.27,7.27,0,0,0-.78-3.08c-.21,2.48-.43,5-.66,7.45-.62,6.91-1.27,14.06-1.64,21.1-.26,5.13-2.33,7.12-7.08,6.88-2.9-.15-5.86-.13-8.73-.12-2,0-4.14,0-6.21,0l-2-.05c-5.56-.14-8.35-.21-9.39.82-.84.83-.82,2.58-.79,5.77,0,1.49,0,3.34,0,5.55-.06,1.75,0,3.58.14,5.34.29,5.12.59,10.41-2.75,15.19l-.17.25-.3,0c-10.71-1.26-13.09-8.81-13.95-16.9A10.84,10.84,0,0,1,329,423.52Z"/><path class="cls-11" d="M82.92,289c-3.66-.08-7.49-.78-10,2.94-1.35-20.08-2.74-40.16-4-60.25a38.12,38.12,0,0,1,1.44-14.64c1.64-5,.69-10.35-.76-15.59-2.56-9.2-5-18.49-4.94-28.17-.71-2.27-1.12-4.4,2.22-4.75,4.8,6.15,3.49,13.92,5.5,20.81.77,2.68-.23,7.71,5.59,4.07,3.09-1.94,4,.54,4.08,3.22a8.88,8.88,0,0,1-.77,3.89c-11.54,25-5,50.85-3.29,76.47.32,4.72,4.87,7.08,5.39,11.49Z"/><path d="M72.49,293.44l-.1-1.44q-.54-8.14-1.1-16.3c-1-14.4-2-29.3-2.91-44a38.58,38.58,0,0,1,1.47-14.82c1.66-5.07.54-10.58-.78-15.31-2.62-9.42-5-18.67-4.95-28.23-.45-1.42-.8-2.9-.08-4a3.53,3.53,0,0,1,2.75-1.32l.28,0,.17.22c3.19,4.1,3.75,8.91,4.3,13.57a44,44,0,0,0,1.28,7.41,13.12,13.12,0,0,1,.34,2c.17,1.27.34,2.59,1,2.93.44.2,1.4.18,3.45-1.11,1.28-.8,2.35-1,3.19-.52,1.29.68,1.61,2.64,1.66,4.16a9.25,9.25,0,0,1-.82,4.11c-9.06,19.69-6.87,40.25-4.75,60.13.56,5.27,1.14,10.73,1.51,16.09.15,2.31,1.37,4,2.66,5.8s2.46,3.42,2.72,5.67l0,.21-.71.87h-.24l-1.36,0c-3.17-.14-6.17-.27-8.24,2.77ZM66.62,169.09a2.43,2.43,0,0,0-1.75.84c-.49.75-.14,2.06.22,3.23l0,.15c0,9.45,2.31,18.65,4.92,28,1.35,4.86,2.5,10.55.76,15.88a37.73,37.73,0,0,0-1.43,14.45c.93,14.65,1.94,29.55,2.92,43.95l1,15c2.31-2.44,5.34-2.31,8.28-2.18l1.1,0,.12-.15a11.61,11.61,0,0,0-2.51-5c-1.32-1.82-2.68-3.72-2.85-6.31-.36-5.34-1-10.79-1.51-16.06-2.13-20-4.34-40.71,4.84-60.65a8.11,8.11,0,0,0,.73-3.66c-.05-1.75-.46-3-1.13-3.31-.5-.27-1.24-.11-2.19.49-2,1.26-3.41,1.63-4.4,1.16-1.22-.57-1.42-2.16-1.62-3.71a12,12,0,0,0-.31-1.8,46.68,46.68,0,0,1-1.32-7.57C70,177.3,69.49,172.91,66.62,169.09Z"/><path class="cls-16" d="M66.77,169.06c-1.65.94-1.57,2.77-2.15,4.25-2-3.3-1.72-7-1.83-10.61a363.21,363.21,0,0,1,2.06-53.37c.2-1.66.45-3.27,1.9-4.37l2-.21c4.73,8.78,1,18,1,26.95s-1.5,17.58,0,26.46C70.38,162,70.26,166.12,66.77,169.06Z"/><path d="M64.71,174.43l-.52-.86c-1.77-3-1.82-6.21-1.87-9.35q0-.75,0-1.5a363.34,363.34,0,0,1,2.06-53.45c.18-1.53.41-3.43,2.1-4.71l.11-.08,2.48-.26.16.29c3.38,6.29,2.56,12.83,1.76,19.15a66.1,66.1,0,0,0-.7,8c0,2.85-.19,5.73-.34,8.52-.34,5.85-.68,11.89.31,17.86.55,3.28.82,8-3.14,11.36l-.07.05a3.63,3.63,0,0,0-1.53,2.64,9.63,9.63,0,0,1-.41,1.36Zm2.24-69c-1.16,1-1.41,2.29-1.6,4a361.26,361.26,0,0,0-2.06,53.3c0,.5,0,1,0,1.51,0,2.63.08,5.33,1.17,7.79l0-.1a4.58,4.58,0,0,1,2-3.24c2.72-2.32,3.58-5.53,2.77-10.41-1-6.08-.67-12.18-.33-18.08.16-2.77.32-5.64.34-8.46a67.7,67.7,0,0,1,.7-8.17c.77-6.06,1.57-12.33-1.49-18.25Z"/><path class="cls-17" d="M252.83,518.89c2.89-4.54,8-5.79,12.4-7.68,14.31-6.13,29.12-11.18,42-20.3.41-.28,1.26.06,1.9.12-1.5,5-6.22,6.53-10.05,8.59C284.31,507.57,268.54,513.19,252.83,518.89Z"/><path d="M251.61,519.87l.79-1.24c2.47-3.87,6.41-5.42,10.22-6.91.82-.32,1.62-.64,2.41-1,3-1.29,6.06-2.54,9-3.76,11.18-4.57,22.73-9.31,32.87-16.49a2.07,2.07,0,0,1,1.63-.07c.2,0,.41.08.59.1l.62.05-.18.59c-1.32,4.4-4.92,6.19-8.4,7.92-.64.32-1.28.64-1.89,1-14.27,7.69-29.73,13.29-44.67,18.71Zm56-28.57a.28.28,0,0,0-.14,0c-10.22,7.24-21.83,12-33.06,16.6-3,1.21-6,2.47-9,3.75-.8.34-1.62.66-2.44,1-3.19,1.25-6.47,2.53-8.77,5.21l.07,0c14.91-5.4,30.33-11,44.54-18.65.62-.34,1.26-.66,1.91-1,3.14-1.56,6.38-3.18,7.71-6.78h-.09A3.7,3.7,0,0,0,307.64,491.3Z"/><path class="cls-18" d="M234.66,535.55c-.42-.45-1.27-1.17-1.19-1.3,3.49-5.54,7.36-10.64,14.61-11.35C244.31,527.87,239.14,531.34,234.66,535.55Z"/><path d="M234.64,536.26l-.34-.37-.47-.46c-.7-.67-1.06-1-.78-1.45,3.43-5.45,7.42-10.83,15-11.58l1.14-.11-.69.91a55.85,55.85,0,0,1-8.93,8.74c-1.51,1.28-3.08,2.6-4.55,4Zm-.58-2,.46.46.15.15c1.38-1.28,2.83-2.5,4.24-3.68a61.79,61.79,0,0,0,8-7.61C240.69,524.68,237.13,529.41,234.06,534.25Z"/><path class="cls-3" d="M384.29,351.35c.38,3.21,1.1,6.45-.7,9.5C383,357.62,382.33,354.39,384.29,351.35Z"/><path d="M383.34,362.25l-.28-1.5c-.6-3.21-1.21-6.53.81-9.67l.76-1.17.16,1.38.15,1.18c.37,2.85.75,5.81-.92,8.63ZM384,353a11.48,11.48,0,0,0-.2,6.19A13.43,13.43,0,0,0,384,353Z"/><path class="cls-19" d="M66.77,169.06c.36-13.21-2-26.37.06-39.64,1.27-8.12,1.33-16.44,1.93-24.67,9.55-18.61,23-33.3,42.2-42.32,5.68,2,2.73,6.62,2.58,10-1.24,28.67-9.33,55.94-17.47,83.19-1.79,6-3.17,12.18-5.35,18.08-1,2.82-.54,4.42,2.46,5a10.14,10.14,0,0,0,5.32-2.54c23-18.77,49.84-27.05,78.95-29.17,7-.51,14-.09,20.58,2.69,5.85,2.48,11.54,2.11,17.52.43,18.87-5.3,37.85-9.66,57.5-11.58,17.87-1.76,35.2.61,52.55,3.4,12.41,2,25.09,3,37,7.44-3.79,9.76-12.65,14.82-20.12,21-4.43,3.65-9.45,7.05-15.2,8.78-5.08,2.16-10.26,1.67-15.6,1.12-23.78-2.47-46.9-8.72-69.16-11.32,2.09,1.24,5.61,3.18,4.55,8.16,7.73,7.42,11,16.61,12.51,27.15,1.95,14.1,4.63,28.16,10.6,42-10.25,1.85-15.87,8.26-19.06,17.32a48.83,48.83,0,0,0-.18,32.26c2.19,6.69,8,9.37,14.2,12.38-4.34,10-13.24,16.49-18.3,26.3,3.52.27,4.48-2.13,5.86-3.68a145.74,145.74,0,0,0,18.8-25.72c7.26-13.07,12.13-26.66,7.89-41.9-.95-3.45.39-5.58,3.22-7.46,11.9-7.88,23.23-16.71,37.08-21.18a12,12,0,0,0,5.2-2.8c2.93-3.24,4.93-5.46,9-.74,2,2.27,4.63-.7,5.65-3.44,1.79-.18,3.61-4.41,5.33-.08.8,2,2.77,2.77,3.8,4.12,2.52,3.29,7.59,5.46,5.65,11.33-1.28,3.85,3.58,4.22,5.17,7.39-3.54,3.32-8,6.16-10.3,11-2.12,4.5-2.76,9.63-6,13.64-14.36,24.15-34.57,43.56-52.63,64.71a57.1,57.1,0,0,0-12,22.33c5.83-1.29,7.69-6.86,12.48-7.37,2.56.53,4.35-1.33,7.15-2.53,10.95,21.63,22.86,42.65,28.58,66.4.39,1.63.59,3.28,2,4.44q.21,5.89.43,11.78c-.86,2.09.49,4.64-1.89,7.15-9.69-11.47-22.89-11.71-36.4-11a25.28,25.28,0,0,0-12.23,3.72c-5.14,3.17-6.05,8.11-5.87,13.84.14,4.27-2.08,5.34-5.73,3.18-4.28-2.53-8.32-5.47-12.47-8.24-2.21-1.47-4.27-3.89-6.65-4.26-8.69-1.34-12-8.51-16.66-14.26-3.92-1.25-3.85-5.65-6.34-8l.11.15a5.39,5.39,0,0,1-1.17-2.66c-.87-3.17-5.31-7.17-.16-9.24,3.68-1.48,4.63,3.49,6.15,6.39a50.41,50.41,0,0,0,9.84,13.46c-3.58-3.3-5.95-7.48-8.69-11.38-1.39-2-2.23-4.47.12-6.22,1.84-1.38,3.95-.14,5.47,1.08,6.22,5,11.62,10.93,17.31,16.52-2.75-2.86-5.59-5.62-8.39-8.43-9.67-9.7-9.35-10.87,1-20.18,10.11-9.1,32.95-10.91,43.26-.54-15.33-11.29-32.52-10-46.33,3.72-4.09,4.07-7.78,7.51-14.46,6.13-7.55-1.55-11.3,2.89-9.44,10.7.74,3.07,1.58,6.43,4.21,8.74.37,1.05.73,2.1,1.1,3.16,2.93,5.18,4.8,10.37,4.55,16.73-.3,7.57,3.05,14.64,6.61,21.36,1.48,2.79,4.33,5.15,3,8.89,0,3.65.15,7.32-.08,11-.3,4.46-2.3,7.85-5.86,10.94-6.6,5.73-14.05,9.8-21.74,13.72-12.7,6.47-25.25,13.22-37.86,19.85a102.83,102.83,0,0,1-16.59,6.62c-9.05,2.92-17.57,2.36-25.65-2.86-2.51-1.61-5-3.25-8.1-3.62-4.38-9.53-6.33-19.47-4.73-29.91,4.4-28.74,2.14-57.65,2.39-86.5,0-3.92-1.18-7.84-1.59-11.79-.28-2.75.06-5.4,3.57-6,2.43,3.3,5.45,2.63,9.46,1.56-4.44-6.67-10.67-9.87-16.81-12.8-13.42-6.4-27.09-12.29-40.61-18.48C59.79,360,45.6,351.49,31.65,342.6c-4.07-2.59-8.16-4.34-13-3.34-4.47,2.15-7.8,2.48-7.3-4.19.09-1.22-.44-3.47-1-3.6-7.81-1.72-2.16-6.62-3-9.89C5.75,316,9,312,9.15,307.32c.14-3.17,1-4.08,3.92-4.11,3.63,0,8.44,2.13,8.61-4.73,0-1.71,2.26-1.23,3.12-.4,3.17,3,6.61,1.7,10.28,1.49,10-.57,20-.43,30-.65,3.59-.07,5.12,1.46,6,5.06,3.75,16,13.7,27.86,26.62,37.43a131.24,131.24,0,0,0,34.18,18.35c1.83.65,3.6,1.91,6.35.18-5.32-2.52-10.23-4.82-15.13-7.17a140.39,140.39,0,0,1-24-14.18c-3.34-2.51-4.46-4.43-2.29-9,6.08-12.77-.94-33.08-13.35-41.08-1.65-1.07-3.17-2.56-5-3.1-2.79-.83-3.29-2.5-3.48-5.1-1-14.54-1.9-29.08-3.51-43.6C70.08,225,73,213.64,77.62,202.82c1.26-2.94,3-5.71,3.31-9.41-4.66,1.57-4.28,6.3-8,9.16C68.64,191.52,67.75,180.28,66.77,169.06Z"/><path d="M146.47,539.56A27.93,27.93,0,0,1,131,534.85c-2.44-1.57-4.94-3.18-7.89-3.54l-.28,0-.12-.25c-4.74-10.33-6.3-20.21-4.77-30.2,3.2-20.84,2.87-42.15,2.56-62.76-.12-7.76-.24-15.78-.17-23.66a38.67,38.67,0,0,0-.85-7.07c-.28-1.52-.57-3.1-.73-4.67-.26-2.46-.13-5.83,4-6.58l.3-.06.19.25c2.08,2.83,4.53,2.52,8.24,1.55-4.19-6-9.83-9-16.21-12-8.46-4-17.17-7.93-25.59-11.7-4.92-2.21-10-4.49-15-6.77C58.54,359.93,43.73,350.89,31.38,343c-3.61-2.3-7.63-4.29-12.62-3.3-2.14,1-4.78,2-6.45.9-1.24-.84-1.73-2.67-1.51-5.6a5.73,5.73,0,0,0-.7-3.09C8,331.48,6.6,330.71,6,329.6c-.8-1.42-.26-3.06.26-4.64a6.23,6.23,0,0,0,.53-3.25c-1-3.61-.06-6.52.8-9.34a20.26,20.26,0,0,0,1.09-5.07c.15-3.4,1.26-4.56,4.42-4.59a22,22,0,0,1,2.26.16c1.83.18,3.55.36,4.62-.58.78-.69,1.18-1.94,1.23-3.82a1.57,1.57,0,0,1,.95-1.5,3.2,3.2,0,0,1,3,.74c2.33,2.23,4.78,1.93,7.6,1.59.75-.09,1.52-.19,2.31-.23,6.61-.38,13.34-.45,19.86-.51,3.37,0,6.74-.06,10.11-.14,3.69-.07,5.53,1.45,6.46,5.45,3.34,14.28,12,26.43,26.42,37.14A131.23,131.23,0,0,0,132,359.29c.3.1.59.22.89.35A4.88,4.88,0,0,0,137,360l-4-1.91c-3.49-1.65-6.85-3.23-10.2-4.84A139.68,139.68,0,0,1,98.68,339c-3.42-2.58-4.74-4.77-2.44-9.61,5.87-12.34-.65-32.38-13.17-40.45-.52-.34-1-.72-1.53-1.09a11.06,11.06,0,0,0-3.31-1.95c-3.25-1-3.66-3.08-3.84-5.54q-.31-4.34-.61-8.66c-.79-11.46-1.61-23.3-2.9-34.92-1.16-10.45.89-21.62,6.28-34.14.29-.68.61-1.35.93-2a22.23,22.23,0,0,0,2.25-6.41c-1.91.9-2.75,2.47-3.7,4.26A12.65,12.65,0,0,1,73.19,203l-.53.4-.24-.62c-4.17-10.85-5.14-22-6.08-32.83l-.07-.85v0c.14-5-.13-10.11-.38-15-.42-8.06-.85-16.4.44-24.67a164,164,0,0,0,1.47-17c.14-2.52.27-5.12.46-7.67l0-.2C78.6,84.49,92.48,70.57,110.75,62l.18-.08.2.07c4.74,1.69,4,5.18,3.33,8a14.24,14.24,0,0,0-.42,2.46c-1.25,28.93-9.51,56.57-17.49,83.31-.61,2.07-1.19,4.18-1.75,6.22-1.07,3.93-2.17,8-3.61,11.89-.53,1.42-.61,2.43-.24,3.09a3.17,3.17,0,0,0,2.26,1.27,9.86,9.86,0,0,0,5-2.42c21.25-17.37,47.17-27,79.24-29.29,8.36-.61,15,.26,20.81,2.73,5.13,2.18,10.43,2.3,17.18.41C238,143.29,255.73,139.71,273,138c18.05-1.77,35.22.6,52.68,3.4,2.79.45,5.65.86,8.41,1.25,9.55,1.35,19.41,2.75,28.71,6.22l.48.18-.19.47c-3.07,7.93-9.47,12.83-15.66,17.56-1.53,1.17-3.11,2.38-4.6,3.61-5.54,4.56-10.42,7.37-15.38,8.87-5.24,2.23-10.6,1.67-15.79,1.14-12.59-1.31-25.08-3.69-37.16-6-10.3-2-20.07-3.83-29.81-5.06a6.75,6.75,0,0,1,3,7.22c6.84,6.66,10.8,15.33,12.45,27.25,1.85,13.29,4.4,27.56,10.57,41.92l.25.58-.62.11c-9.25,1.67-15.18,7.07-18.68,17a48,48,0,0,0-.17,31.93c2.06,6.32,7.6,9,13.46,11.86l.91.44-.19.44c-2.33,5.36-6,9.79-9.58,14.08A73.14,73.14,0,0,0,247.69,334c2-.1,2.93-1.3,3.89-2.56.26-.34.51-.67.78-1,8.19-9.23,14.14-17.38,18.73-25.64,6.4-11.49,12.33-25.42,7.85-41.52-.93-3.35.13-5.82,3.43-8,2.12-1.41,4.23-2.85,6.34-4.29,9.55-6.52,19.41-13.26,30.86-17a11.67,11.67,0,0,0,5-2.65c1.77-1.95,3.28-3.63,5.19-3.63h0c1.41,0,2.86.94,4.56,2.89a1.47,1.47,0,0,0,1.44.61c1.34-.24,2.73-2.19,3.36-3.9l.11-.29.31,0a3.58,3.58,0,0,0,1.47-.9c.75-.62,1.6-1.32,2.53-1.07.74.18,1.32.89,1.85,2.2a6.43,6.43,0,0,0,2.18,2.54,9.4,9.4,0,0,1,1.55,1.47,19.77,19.77,0,0,0,2.21,2.31c2.37,2.25,5.06,4.8,3.51,9.47-.63,1.89.36,2.71,2.16,4a8.76,8.76,0,0,1,3,3l.17.34-.27.25c-.89.84-1.86,1.67-2.8,2.46-2.82,2.39-5.73,4.86-7.39,8.41a46.15,46.15,0,0,0-1.9,5c-1,3-2,6.1-4.13,8.72-10.48,17.65-24.36,33-37.77,47.93-4.93,5.47-10,11.12-14.87,16.79a56.3,56.3,0,0,0-11.68,21.3,15.13,15.13,0,0,0,5.62-3.69c1.82-1.64,3.55-3.2,6.08-3.47h.08l.08,0c1.59.33,2.86-.38,4.47-1.29A23.77,23.77,0,0,1,298,351.7l.43-.19.21.42c1.57,3.1,3.17,6.19,4.75,9.28,9.32,18.11,19,36.83,23.88,57.24l.15.65a5.89,5.89,0,0,0,1.65,3.52l.17.14.45,12.11,0,.1a6.48,6.48,0,0,0-.32,2.33,6.5,6.5,0,0,1-1.68,5l-.38.4-.36-.42c-9.48-11.21-22.43-11.54-36-10.87A25,25,0,0,0,279,435c-5.23,3.23-5.8,8.35-5.64,13.4.07,2.25-.47,3.73-1.61,4.41-.81.48-2.32.73-4.88-.78-3-1.77-5.93-3.78-8.76-5.72-1.24-.85-2.48-1.7-3.72-2.53-.72-.48-1.42-1.05-2.1-1.61-1.47-1.2-2.86-2.34-4.36-2.57-7.15-1.1-10.77-6.08-14.28-10.88-.83-1.15-1.7-2.34-2.59-3.45-2.5-.86-3.45-2.88-4.37-4.84a11,11,0,0,0-1.9-3.14l0,0a5.21,5.21,0,0,1-1.2-2.52l-.09-.37a14.21,14.21,0,0,0-1.17-2.57,10.37,10.37,0,0,1-1.44-3.66c-1.29,1.82-1.56,4.62-.75,8,.66,2.77,1.49,6.23,4,8.49l.1.08,1.14,3.28c3.38,6,4.8,11.2,4.58,16.92-.29,7.52,3.08,14.55,6.55,21.1a22.78,22.78,0,0,0,1.23,2c1.4,2.08,2.86,4.23,1.83,7.26,0,1.09,0,2.18,0,3.27,0,2.5.06,5.09-.1,7.62-.29,4.39-2.21,8-6,11.29-6.85,5.94-14.55,10.07-21.84,13.78-9,4.56-18,9.34-26.71,14q-5.57,3-11.15,5.89a105.18,105.18,0,0,1-16.67,6.66A34.52,34.52,0,0,1,146.47,539.56Zm-23-9.21c3,.45,5.57,2.08,8,3.65,7.62,4.92,15.87,5.84,25.24,2.82a104.84,104.84,0,0,0,16.51-6.59l11.16-5.89c8.73-4.63,17.76-9.41,26.71-14,7.25-3.69,14.88-7.78,21.64-13.65,3.66-3.17,5.42-6.44,5.69-10.59.16-2.5.13-5.06.1-7.54,0-1.13,0-2.26,0-3.38l0-.16c.92-2.6-.35-4.47-1.69-6.45a20.66,20.66,0,0,1-1.28-2.05c-3.54-6.67-7-13.84-6.67-21.61.22-5.6-1.13-10.52-4.49-16.47l-1.09-3.11c-2.72-2.47-3.58-6-4.26-8.92-1-4.12-.45-7.51,1.52-9.54a6.53,6.53,0,0,1,.61-.56,4.69,4.69,0,0,1,2.33-1.72,3.09,3.09,0,0,1,3.12.21,15.67,15.67,0,0,1,2.44.31c4.75,1,8-.59,10.78-3a60.05,60.05,0,0,1,6.31-6.23,26.92,26.92,0,0,1,7.58-4.65,31.83,31.83,0,0,1,24-2.22,24.79,24.79,0,0,1,12.39,6.34l-.66.76a39.79,39.79,0,0,0-10.81-5.75,39.37,39.37,0,0,0-22.48.85,40,40,0,0,0-12.38,8.57c-1,1-2.08,2.06-3.18,3a6.12,6.12,0,0,0-1.62,3.57c-.06,2.36,2.07,4.91,6.88,9.73l2.57,2.56c1.92,1.91,3.91,3.88,5.82,5.88l-.71.7c-1.47-1.45-2.92-2.91-4.37-4.38a159.51,159.51,0,0,0-12.91-12.11c-2-1.64-3.62-2-4.85-1.07a2.94,2.94,0,0,0-1,3.73q.5.92,1,1.8h0c.66.95,1.3,1.9,1.94,2.86a53.29,53.29,0,0,0,5.55,7.33c.37.39.75.76,1.13,1.12l-.68.73c-.41-.38-.81-.77-1.19-1.16a51.18,51.18,0,0,1-7.61-10.35,9.24,9.24,0,0,1-1-1.87l-.11-.22c-.33-.63-.64-1.36-.94-2.07a10.71,10.71,0,0,0-2.2-3.81A7,7,0,0,0,222,407a1.54,1.54,0,0,0-.08.19c-.42,1.15.41,2.7,1.22,4.2a14.45,14.45,0,0,1,1.25,2.78l.1.37a4.72,4.72,0,0,0,.81,1.93v0a11.48,11.48,0,0,1,2.25,3.56c.88,1.89,1.72,3.67,3.9,4.37l.15,0,.09.12c.95,1.16,1.85,2.4,2.72,3.6,3.54,4.85,6.89,9.44,13.63,10.48,1.76.27,3.32,1.55,4.83,2.79.66.54,1.35,1.1,2,1.55,1.25.83,2.49,1.68,3.74,2.53,2.81,1.94,5.72,3.93,8.7,5.69,1.69,1,3,1.27,3.86.78s1.18-1.69,1.12-3.52c-.16-5.09.44-10.78,6.11-14.28a25.91,25.91,0,0,1,12.47-3.79c13.64-.67,26.69-.35,36.42,10.78a5.82,5.82,0,0,0,1-3.89,7.56,7.56,0,0,1,.35-2.58l-.42-11.47a7,7,0,0,1-1.82-3.91l-.14-.64c-4.89-20.29-14.5-39-23.79-57q-2.28-4.43-4.54-8.86c-.66.31-1.26.65-1.85,1-1.63.91-3.16,1.78-5.09,1.4-2.17.26-3.69,1.63-5.44,3.22s-3.84,3.46-6.91,4.14l-.82.18.23-.8a57.28,57.28,0,0,1,12.13-22.52c4.86-5.69,9.95-11.35,14.88-16.82,13.39-14.85,27.23-30.21,37.7-47.82,2-2.54,3-5.56,4-8.47a44.84,44.84,0,0,1,1.93-5.13c1.76-3.75,4.75-6.29,7.65-8.75.87-.73,1.69-1.43,2.48-2.16a8.71,8.71,0,0,0-2.5-2.33c-1.67-1.2-3.41-2.44-2.52-5.12,1.35-4.07-.88-6.19-3.25-8.43a22.21,22.21,0,0,1-2.32-2.44,8.26,8.26,0,0,0-1.38-1.3,7.2,7.2,0,0,1-2.48-2.94c-.48-1.2-.9-1.54-1.16-1.61-.45-.11-1.06.39-1.66.88A5,5,0,0,1,340,228c-.77,1.89-2.3,4-4,4.28a2.46,2.46,0,0,1-2.38-.94c-1.47-1.7-2.72-2.54-3.81-2.55h0c-1.47,0-2.78,1.45-4.43,3.29a12.52,12.52,0,0,1-5.43,2.95c-11.3,3.64-21.11,10.34-30.59,16.82-2.12,1.44-4.23,2.88-6.36,4.3-3,2-3.83,4-3,6.9,4.57,16.45-1.45,30.6-7.94,42.28-4.63,8.33-10.63,16.53-18.87,25.81-.25.28-.48.6-.73.91-1.07,1.42-2.4,3.19-5.54,2.94l-.75-.06.34-.67c2.4-4.65,5.69-8.6,8.86-12.43,3.58-4.3,7-8.38,9.24-13.4l0,0c-6.06-2.94-11.79-5.72-14-12.45a49.63,49.63,0,0,1,.18-32.58c3.5-9.94,9.66-15.68,18.83-17.53-6-14.27-8.57-28.42-10.4-41.6-1.66-12-5.47-20.24-12.35-26.86l-.2-.19.06-.27c.95-4.52-2.14-6.34-4.18-7.54l-2.17-1.29,2.34.28c10.51,1.22,21,3.22,32.08,5.34,12.06,2.29,24.53,4.67,37.07,6,5.07.53,10.3,1.07,15.35-1.08,4.88-1.47,9.65-4.23,15.08-8.7,1.51-1.24,3.1-2.46,4.63-3.63,5.95-4.55,12.11-9.26,15.15-16.66-9.05-3.3-18.69-4.67-28-6-2.76-.39-5.63-.8-8.43-1.25-17.39-2.79-34.49-5.15-52.42-3.4-17.21,1.69-34.92,5.26-57.42,11.57-7,2-12.49,1.82-17.84-.45-5.69-2.4-12.15-3.25-20.35-2.65-31.86,2.32-57.59,11.83-78.68,29.06a10.69,10.69,0,0,1-5.58,2.65h-.07l-.08,0a4.1,4.1,0,0,1-3-1.77c-.53-.95-.47-2.19.17-3.93,1.42-3.85,2.52-7.89,3.59-11.8.56-2.05,1.14-4.17,1.75-6.24,8-26.68,16.2-54.27,17.45-83.08a15.87,15.87,0,0,1,.44-2.63c.62-2.75,1.2-5.35-2.5-6.76C93,71.46,79.39,85.18,69.25,104.89c-.18,2.51-.32,5.07-.45,7.55a164.1,164.1,0,0,1-1.48,17.06C66,137.66,66.47,146,66.89,154c.25,4.94.52,10,.38,15.08l.07.79c.91,10.52,1.85,21.4,5.77,31.91A13.15,13.15,0,0,0,75.75,198c1.08-2,2.19-4.08,5-5l.72-.25-.06.76A21.26,21.26,0,0,1,79,201c-.31.66-.62,1.32-.91,2-5.32,12.36-7.35,23.36-6.21,33.64,1.29,11.64,2.12,23.49,2.91,35q.3,4.32.61,8.66c.19,2.63.68,3.92,3.12,4.65a12.1,12.1,0,0,1,3.62,2.1c.49.37,1,.73,1.48,1.06,12.89,8.31,19.6,29,13.53,41.72-2,4.29-1,6,2.14,8.38a138.72,138.72,0,0,0,24,14.13c3.35,1.6,6.71,3.19,10.2,4.84l5.75,2.72-.78.48c-2.53,1.6-4.34.85-5.93.2-.28-.12-.56-.23-.85-.33a132.11,132.11,0,0,1-34.31-18.42C82.67,331,73.91,318.62,70.52,304.1c-.83-3.52-2.25-4.74-5.47-4.68s-6.75.11-10.12.14c-6.51.06-13.23.13-19.82.51-.75,0-1.5.13-2.23.22-2.83.34-5.75.7-8.42-1.85a2.23,2.23,0,0,0-1.95-.54c-.15.06-.32.18-.33.6-.05,2.17-.57,3.66-1.56,4.54-1.4,1.23-3.43,1-5.39.82-.72-.07-1.46-.15-2.16-.15-2.62,0-3.3.74-3.42,3.63a21.54,21.54,0,0,1-1.14,5.33c-.82,2.68-1.67,5.45-.78,8.79a7.12,7.12,0,0,1-.55,3.82c-.48,1.43-.93,2.79-.34,3.82.49.85,1.64,1.47,3.53,1.88,1.12.25,1.5,3.16,1.42,4.13-.18,2.5.18,4.08,1.08,4.7s2.72.34,5.51-1l.12,0c5.38-1.1,9.8,1.11,13.42,3.41C44.24,350,59,359.05,75.07,366.4c5,2.28,10.08,4.56,15,6.77,8.43,3.77,17.14,7.67,25.61,11.71,6.72,3.21,12.64,6.4,17,13l.39.58-.67.18c-3.65,1-7.1,1.91-9.8-1.49-2.37.54-3.2,2.14-2.86,5.44.16,1.53.45,3.09.72,4.59a38.51,38.51,0,0,1,.87,7.26c-.07,7.87,0,15.88.17,23.63.32,20.65.64,42-2.57,62.93C117.45,510.68,119,520.3,123.52,530.35Zm110.18-124A7.9,7.9,0,0,1,237,408c.71.58,1.42,1.17,2.11,1.76a6.19,6.19,0,0,1-1-3.38,5,5,0,0,1,.43-1.94A12.25,12.25,0,0,1,233.7,406.3Zm-5.93-.37a15.32,15.32,0,0,1,1.58,3.07,4.11,4.11,0,0,1,1.53-2.08,3.6,3.6,0,0,1,.88-.48,14.52,14.52,0,0,1-2.83-.32C228.53,406,228.14,406,227.77,405.93Z"/><path class="cls-20" d="M223.8,425.07c-5-3-6.62-8-6.74-13.24-.16-7,5.16-11.46,12-8.92,6.1,2.26,9.05,0,12.7-4,7.55-8.19,16.8-12.69,28.29-12.44s20.2,5.2,26.28,15.16c-2.83,1.27-3.76-1-5-2.19-14-12.66-34.22-12.23-47.57,1.07-4.78,4.76-5,6.72-.39,11.71,5.83,6.28,12.49,11.8,17.67,18.67l-1.38,1.51c-4.29-4.13-8.59-8.24-12.86-12.38a76,76,0,0,0-16-12.56c2.53,9.83,10,15.54,13.07,23.84A92,92,0,0,1,224.32,405c-2.41,5.3,1.93,8.29.77,12l-3.64-2.93C220.64,418.46,223.31,421.6,223.8,425.07Z"/><path d="M259.65,433.16,255.29,429q-4.44-4.26-8.86-8.55a77.9,77.9,0,0,0-14.79-11.85c1.48,4.81,4.18,8.65,6.79,12.37,2.35,3.33,4.56,6.48,5.93,10.23l.71,1.94-1.52-1.4a91.94,91.94,0,0,1-19.16-25.51c-.71,2.34-.06,4.18.58,6,.59,1.64,1.15,3.2.6,5l-.22.7L221.83,415a13.54,13.54,0,0,0,1.29,6.13A17.39,17.39,0,0,1,224.3,425l.14,1-.89-.54c-4.56-2.71-6.84-7.18-7-13.66-.08-3.7,1.3-6.84,3.81-8.63s5.56-2,8.87-.77c6,2.22,8.7-.07,12.16-3.82,7.93-8.6,17.58-12.85,28.67-12.6,11.79.25,20.52,5.29,26.69,15.4l.3.49-.52.23c-2.56,1.15-3.88-.37-4.83-1.47a10.09,10.09,0,0,0-.75-.81c-13.92-12.58-33.63-12.14-46.88,1.05-4.68,4.67-4.74,6.32-.37,11,2.09,2.26,4.33,4.45,6.5,6.58a111.39,111.39,0,0,1,11.2,12.13l.25.33ZM230,406.49l1,.59c6.85,3.91,11.5,8.21,16.05,12.63q4.41,4.29,8.86,8.54l3.63,3.48.75-.82a113.58,113.58,0,0,0-10.85-11.69c-2.18-2.13-4.43-4.33-6.53-6.61-4.71-5.07-4.64-7.39.4-12.4,13.63-13.59,33.92-14,48.25-1.09a9.94,9.94,0,0,1,.83.89c.86,1,1.62,1.87,3.13,1.42-6-9.45-14.32-14.17-25.54-14.41-10.95-.25-20.08,3.78-27.92,12.28-3.5,3.79-6.69,6.51-13.24,4.08-3-1.11-5.8-.88-7.94.65s-3.47,4.43-3.39,7.79c.13,5.61,1.93,9.6,5.5,12.17a24.85,24.85,0,0,0-.87-2.5c-.87-2.26-1.77-4.6-1.23-7.53l.15-.82,3.66,2.94a8.28,8.28,0,0,0-.74-3.58c-.76-2.12-1.62-4.53-.17-7.72l.43-.95.47.93a93.15,93.15,0,0,0,17.74,24.58,56.3,56.3,0,0,0-4.88-7.83c-2.88-4.09-5.86-8.33-7.28-13.88Z"/><path class="cls-20" d="M239.06,475.21c-6.5-12-12.28-24.28-12.05-38.42.05-3-2.7-5.38-2.11-8.56,12,15.92,23,32.63,38,46.15,4,3.58,7.82,7.24,12.46,9.94,2.81,1.64,5.68,4.27,9.1,1.78s2-5.88.89-9.07a148.65,148.65,0,0,1-5.24-16.72c6.15,6.39,9.48,14,8.93,22.85-.43,6.82-4.86,9.31-11.06,6.12a80.56,80.56,0,0,1-24.07-19.2c-6.76-7.78-13.74-15.41-19.31-24.16-.7-1.1-1.42-2.28-3.56-1.95-.33,8.54,3.25,15.9,7.36,23A142.88,142.88,0,0,0,253,487.33C244.13,486.08,243.66,478.4,239.06,475.21Z"/><path d="M282.83,491.16a11.49,11.49,0,0,1-5.13-1.43,81.47,81.47,0,0,1-24.22-19.32l-2.67-3.05C245,460.7,239,453.82,234.13,446.19c-.65-1-1.2-1.85-2.65-1.77-.2,8.56,3.66,16,7.3,22.34A141.57,141.57,0,0,0,253.38,487l.83,1-1.28-.18c-5.92-.83-8.27-4.47-10.36-7.68a15.31,15.31,0,0,0-3.79-4.53l-.1-.07-.06-.1c-6.25-11.56-12.34-24.07-12.11-38.67a8.75,8.75,0,0,0-1-3.66,8,8,0,0,1-1.05-5l.2-1.12.69.91c2.38,3.16,4.76,6.4,7.06,9.54,9.29,12.65,18.89,25.73,30.82,36.54l1.07,1a69,69,0,0,0,11.31,8.92l1.27.78c2.39,1.52,4.65,2.95,7.29,1,3-2.2,1.95-5.1.84-8.17l-.13-.33a146.82,146.82,0,0,1-5.26-16.78l-.41-1.76,1.26,1.3c6.55,6.81,9.6,14.63,9.06,23.23-.21,3.5-1.45,6-3.57,7.19A6.11,6.11,0,0,1,282.83,491.16Zm-51.14-47.75c1.85,0,2.62,1.2,3.25,2.19,4.85,7.62,10.84,14.47,16.63,21.1.89,1,1.78,2,2.66,3.06a80.51,80.51,0,0,0,23.93,19.08c2.9,1.49,5.41,1.73,7.26.67s2.87-3.23,3.07-6.38c.48-7.72-2-14.79-7.48-21,1.28,5,3,9.85,4.76,14.77l.13.33c1.14,3.13,2.43,6.68-1.19,9.31-3.19,2.32-6,.57-8.42-1-.41-.27-.82-.53-1.23-.77a69,69,0,0,1-11.48-9l-1.07-1c-12-10.87-21.64-24-30.95-36.69-2-2.76-4.12-5.61-6.22-8.4a10.57,10.57,0,0,0,1,3,9.51,9.51,0,0,1,1.14,4.09c-.23,14.31,5.76,26.65,11.94,38.07a16.67,16.67,0,0,1,4,4.73c1.89,2.91,3.83,5.9,8.32,7a137.9,137.9,0,0,1-13.81-19.32c-3.78-6.56-7.78-14.31-7.43-23.31l0-.41.4-.07A5.54,5.54,0,0,1,231.69,443.41Z"/><path class="cls-20" d="M225,416.83c3.63,1.48,3.9,5.62,6.34,8-1,1.73-2,1.22-2.83-.05C226.91,422.35,225.08,420,225,416.83Z"/><path d="M230,426.48c-.67,0-1.31-.47-1.91-1.39-.19-.3-.38-.6-.58-.9-1.43-2.18-2.92-4.45-3-7.34l0-.77.72.29c2.37,1,3.4,3,4.39,4.89a12.36,12.36,0,0,0,2.11,3.26l.27.27-.18.33a2.22,2.22,0,0,1-1.74,1.36Zm-4.43-8.8c.31,2.21,1.51,4,2.78,6,.19.3.39.6.59.9.38.6.79.93,1.07.93s.46-.2.7-.54a14.86,14.86,0,0,1-2-3.22C227.85,420.12,227.07,418.6,225.55,417.68Z"/><path class="cls-21" d="M93.18,178.69c-.82.55-1.66,1.08-2.47,1.64-1,.72-1.94,2.08-3.4,1.27s-1.31-2-.88-3.42c2.12-6.94,4.28-13.88,6.22-20.87,4.41-15.89,9.16-31.7,12.89-47.75,3.12-13.44,5-27.15,7.38-40.76a6.67,6.67,0,0,0-2-6.37c.89-1.41,2.25-1.12,3.57-1,1,14.92-.26,29.75-1.3,44.64A339.35,339.35,0,0,1,107,150.22c-2.06,10.08-4.11,20.13-13.41,26.57C93.18,177.06,93.3,178,93.18,178.69Z"/><path d="M88.18,182.35a2.35,2.35,0,0,1-1.12-.31c-1.79-1-1.49-2.77-1.11-4l.77-2.5c1.84-6,3.74-12.21,5.44-18.35q1.66-6,3.38-12c3.3-11.67,6.72-23.75,9.51-35.75,2.27-9.74,3.92-19.82,5.51-29.56.61-3.72,1.22-7.45,1.87-11.17a6.13,6.13,0,0,0-1.81-5.91l-.31-.29.22-.35c1-1.55,2.49-1.39,3.7-1.26L115,61l0,.42C116,75,115,88.81,114,102.13l-.28,4a340.71,340.71,0,0,1-6.27,44.21c-2,10-4.15,20.33-13.62,26.88a3.64,3.64,0,0,0-.1.83c0,.26,0,.52-.06.75l0,.21-1,.62c-.57.37-1.14.74-1.7,1.13a6.07,6.07,0,0,0-.64.52A3.49,3.49,0,0,1,88.18,182.35Zm23.44-120a7.19,7.19,0,0,1,1.79,6.5c-.64,3.72-1.25,7.44-1.86,11.17C110,89.8,108.3,99.89,106,109.67c-2.8,12-6.22,24.11-9.53,35.8q-1.69,6-3.37,12c-1.71,6.16-3.62,12.37-5.46,18.38l-.76,2.5c-.47,1.51-.28,2.33.64,2.84s1.31.06,2.15-.66a9.15,9.15,0,0,1,.72-.58l1.72-1.15.58-.37,0-.42c0-.63.06-1.28.53-1.6,9.13-6.32,11.1-16,13.19-26.24a337.6,337.6,0,0,0,6.26-44.1l.28-4c.94-13.15,1.91-26.75,1-40.17C113,61.77,112.2,61.74,111.62,62.38Z"/><path class="cls-22" d="M247.1,177.06c-2.94-3.49-5.88-7-9.3-11,17.94.85,34.47,5.13,51.24,7.84,12.7,2.05,25.51,3.5,38.27,5.22a28.75,28.75,0,0,1-10.21,6c-19.76.72-38.81-4.41-58.13-7.22C255,177.31,251.11,176.68,247.1,177.06Z"/><path d="M313.32,185.68c-12.92,0-25.67-2.3-38.05-4.53-5.36-1-10.91-2-16.38-2.77l-.71-.1a45.18,45.18,0,0,0-11-.72l-.26,0-10.21-12.1,1.15.06c12.49.59,24.42,2.87,36,5.07,5,1,10.21,1.95,15.33,2.77,8.78,1.42,17.77,2.57,26.46,3.69,3.93.5,7.87,1,11.79,1.54l1,.14-.76.71a29.14,29.14,0,0,1-10.38,6.12l-.16,0C315.85,185.66,314.58,185.68,313.32,185.68Zm-63.66-9.24a60,60,0,0,1,8.67.85l.71.1c5.49.8,11,1.8,16.41,2.77,13.51,2.44,27.47,5,41.55,4.45a29.07,29.07,0,0,0,9.17-5.16l-10.72-1.39c-8.7-1.12-17.69-2.27-26.49-3.69-5.13-.83-10.33-1.82-15.36-2.78-11.15-2.13-22.66-4.33-34.67-5l8.39,9.95C248.11,176.47,248.89,176.44,249.66,176.44Z"/><path class="cls-19" d="M391.23,318.9c.32-2.34,2.28-3,4-4a321.52,321.52,0,0,1,69.44-32.12c37.86-12.25,75.26-26.06,114.23-34.61,9.61-2.11,19.21-4.62,28.77-5.44,1.78,3.28-.08,5.22-.77,7.28Q591,297.69,575,345.31c-.63,1.88-1.45,3.69-2.18,5.54-4.86,3.46-10.11,2.32-15.26,1.1-49.71-11.74-100-20.53-150.41-28.34C401.66,322.77,395.72,323.15,391.23,318.9Z"/><path d="M565.26,353.66a34.56,34.56,0,0,1-7.86-1.22c-43-10.15-89.34-18.89-150.37-28.33-1.13-.18-2.31-.3-3.45-.42-4.44-.47-9-1-12.69-4.42l-.18-.18,0-.25c.29-2.18,1.83-3,3.31-3.86.3-.17.6-.33.89-.51a323.1,323.1,0,0,1,69.54-32.18c8.67-2.8,17.45-5.73,25.94-8.57,28.65-9.56,58.27-19.45,88.34-26.05l5.53-1.25c7.65-1.73,15.55-3.53,23.31-4.2l.32,0,.16.29c1.5,2.77.61,4.67-.17,6.35a10.53,10.53,0,0,0-.56,1.33c-10.5,31.53-21.09,63.07-31.91,95.31-.44,1.3-1,2.58-1.48,3.82-.24.58-.48,1.16-.71,1.74l-.06.14-.12.08A13,13,0,0,1,565.26,353.66ZM391.77,318.72c3.4,3.07,7.72,3.53,11.91,4,1.15.13,2.35.25,3.5.43,61.06,9.44,107.46,18.19,150.45,28.35,4.69,1.1,10,2.36,14.74-1,.22-.54.44-1.08.67-1.62.5-1.22,1-2.48,1.45-3.75,10.82-32.23,21.41-63.78,31.91-95.31a12,12,0,0,1,.6-1.43c.72-1.54,1.4-3,.35-5.16-7.58.68-15.34,2.44-22.83,4.15-1.85.42-3.69.84-5.54,1.24-30,6.6-59.62,16.47-88.24,26-8.5,2.84-17.28,5.77-25.95,8.57a322.81,322.81,0,0,0-69.33,32.08c-.3.19-.61.36-.92.53C393.22,316.58,392.08,317.22,391.77,318.72Z"/><path class="cls-3" d="M391.23,318.9c12.64.29,24.91,3.33,37.38,4.87,18.72,2.32,36.95,7.48,55.75,9.34,5.56.55,11,2.52,16.47,3.73,20.35,4.48,41.18,6.76,61.06,13.36,3.58,1.19,7.25.7,10.89.65.23,3-1.5,3.95-4.21,4.22-11.23,1.12-22.45,2.35-33.67,3.56-36,3.87-71.85,8.57-107.51,14.76-9.78,1.69-10.73,3.08-10.86,13,0,2.33.19,4.66.3,7-3.36,4.8-2.72,10.6-3.86,15.93a118.34,118.34,0,0,0-2,16.72c-.3,4.47-2.59,5.62-6.55,5.1-9.18-1.2-18.38-2.19-27.52-3.58-4-.62-6.63-.52-8.5,4.13-2.18,5.4-3.74,5.11-8.8,1-2.72-2.21-6.29-3.3-7-7.53-.25-1.38-2.3-.05-3.51-.26-.92-15.51-.77-16.8,15.32-15.76,5.58.36,12.4,1.55,16.54-1,4.51-2.8,1.83-10.44,3.37-15.87,1.33-4.68.77-9.91,1-14.89,2.35-7.35,1.5-15,1.6-22.49.14-10.24,2.33-20.25,2.42-30.46C389.35,322.58,390.57,320.74,391.23,318.9Z"/><path d="M364.91,436.28c-1.43,0-3.1-1.12-5.64-3.18-.66-.54-1.4-1-2.11-1.49-2.21-1.46-4.5-3-5.1-6.34a.3.3,0,0,0-.08-.18c-.19-.12-.81,0-1.27.14a4.66,4.66,0,0,1-1.75.19l-.39-.07,0-.4c-.49-8.33-.63-12.43,1.57-14.63s6.1-2.19,14.28-1.66c.95.06,1.94.15,2.95.23,4.92.43,10,.87,13.3-1.18,2.6-1.62,2.59-5.14,2.58-8.87a24.77,24.77,0,0,1,.57-6.72,38.11,38.11,0,0,0,.92-10.12c0-1.53,0-3.11.1-4.66l0-.12c1.79-5.6,1.7-11.5,1.61-17.2,0-1.69-.05-3.44,0-5.15a150.75,150.75,0,0,1,1.22-15.14,149,149,0,0,0,1.2-15.31,10,10,0,0,1,1.21-4c.26-.56.52-1.15.72-1.71l.13-.34h.36c8.22.19,16.41,1.56,24.33,2.88,4.29.72,8.72,1.45,13.09,2,8.68,1.07,17.39,2.78,25.81,4.44,9.76,1.91,19.85,3.89,29.93,4.89a68.14,68.14,0,0,1,10.81,2.3c1.87.5,3.81,1,5.71,1.44,6.87,1.51,13.9,2.79,20.71,4,13.37,2.44,27.2,5,40.41,9.34,2.76.92,5.54.81,8.49.7.74,0,1.49-.06,2.23-.07h.48l0,.47c.28,3.78-2.35,4.53-4.66,4.76-9.32.93-18.78,1.95-27.93,2.94l-5.73.61c-39.76,4.28-74.92,9.11-107.49,14.76-9.43,1.64-10.31,2.69-10.44,12.55,0,1.56.08,3.17.17,4.72.05.75.1,1.49.13,2.24v.17l-.1.14c-2.25,3.21-2.64,6.85-3.06,10.69a48.89,48.89,0,0,1-.72,5.06,117.11,117.11,0,0,0-2,16.64c-.15,2.19-.76,3.71-1.89,4.63s-2.83,1.25-5.23.94c-3.13-.41-6.26-.79-9.39-1.18-5.95-.73-12.11-1.49-18.14-2.41-3.76-.57-6.17-.6-7.95,3.82-1.11,2.74-2.07,4-3.31,4.31A2.29,2.29,0,0,1,364.91,436.28Zm-13.17-12.23a1.41,1.41,0,0,1,.79.2,1.21,1.21,0,0,1,.51.84c.53,3,2.54,4.28,4.67,5.69a26.31,26.31,0,0,1,2.19,1.54c2.55,2.07,4.25,3.22,5.4,2.91.88-.22,1.67-1.33,2.63-3.71,2.05-5.09,5-5,9-4.44,6,.92,12.17,1.68,18.11,2.41q4.71.57,9.4,1.18c2.11.27,3.53,0,4.47-.73s1.39-2,1.52-3.92a118.25,118.25,0,0,1,2-16.78c.34-1.61.52-3.31.7-5,.4-3.75.82-7.62,3.13-11,0-.68-.07-1.36-.11-2.05-.1-1.57-.2-3.19-.18-4.8.13-10.29,1.4-11.8,11.27-13.52,32.59-5.65,67.77-10.48,107.55-14.76l5.74-.62c9.15-1,18.61-2,27.93-2.94,2.72-.27,3.79-1.15,3.78-3.21l-1.73.06c-2.9.11-5.9.23-8.84-.75-13.13-4.36-26.93-6.87-40.27-9.3-6.81-1.24-13.86-2.53-20.74-4-1.93-.43-3.88-.95-5.76-1.46a66.3,66.3,0,0,0-10.64-2.26c-10.13-1-20.25-3-30-4.91-8.41-1.65-17.1-3.36-25.74-4.43-4.4-.55-8.84-1.29-13.13-2-7.77-1.3-15.81-2.64-23.84-2.86-.2.49-.42,1-.63,1.44a9.31,9.31,0,0,0-1.12,3.58,150.74,150.74,0,0,1-1.21,15.42c-.56,4.91-1.14,10-1.21,15,0,1.7,0,3.44,0,5.13.09,5.76.18,11.72-1.64,17.45-.08,1.5-.08,3.05-.09,4.55a38.75,38.75,0,0,1-1,10.39,24,24,0,0,0-.53,6.44c0,3.83,0,7.8-3.05,9.72-3.58,2.22-8.84,1.77-13.92,1.33-1-.09-2-.17-2.92-.23-7.88-.51-11.7-.43-13.51,1.37s-1.76,5.69-1.3,13.41a7.73,7.73,0,0,0,1-.19A6.08,6.08,0,0,1,351.74,424.05Z"/><path class="cls-23" d="M277.35,274.09c.69,9.61-2.65,18.21-6.51,26.7-1.72,3.77-3.84,4.22-7.86,2.49-7.4-3.19-10.24-9.23-11.37-16.24a40.78,40.78,0,0,1,7.47-31c5.64-7.85,12.49-6.41,16.18,2.45C277.39,263.61,276.83,268.88,277.35,274.09Z"/><path d="M266.7,304.74a10.26,10.26,0,0,1-3.91-1c-6.6-2.85-10.31-8.13-11.68-16.62a41.51,41.51,0,0,1,7.56-31.37c2.71-3.76,5.89-5.64,9-5.29,3.26.37,6.13,3.15,8.08,7.84,1.56,3.74,1.71,7.58,1.86,11.3.06,1.46.12,3,.26,4.44h0c.73,10-2.83,18.78-6.55,26.94C270.13,303.54,268.75,304.74,266.7,304.74Zm.2-53.33c-2.51,0-5.12,1.73-7.42,4.93A40.5,40.5,0,0,0,252.1,287c1.31,8.12,4.83,13.16,11.08,15.86,3.92,1.68,5.66,1.14,7.2-2.24,3.66-8,7.17-16.71,6.47-26.45-.15-1.5-.21-3-.27-4.49-.14-3.63-.29-7.38-1.78-11-1.81-4.33-4.39-6.9-7.28-7.23C267.32,251.43,267.11,251.41,266.9,251.41Z"/><path class="cls-22" d="M291.09,354.69c-2.17,4.29-6.06,7-9.37,10.27-1.48,1.44-3.42,2.49-5.37,1.09-1.55-1.11-1.12-2.9-.58-4.56,2.25-7,4.73-14,9.52-19.64,10.57-12.39,21.7-24.29,32.32-36.63,7.36-8.55,14.3-17.46,21.31-26.3,1.26-1.6,2.33-3.23,4.35-3.9-12.07,26-25.55,51.2-45.49,72.29C295.5,349.72,293.32,352.23,291.09,354.69Z"/><path d="M278.28,367.21a3.84,3.84,0,0,1-2.22-.75c-2-1.41-1.22-3.73-.77-5.12,2.33-7.23,4.81-14.18,9.62-19.82,5.56-6.52,11.37-13,17-19.28,5.06-5.65,10.3-11.5,15.33-17.35,6.23-7.24,12.26-14.86,18.1-22.24L339,278c1.09-1.4,2.22-2.86,4.15-3.49l1.09-.37-.48,1.05c-11.43,24.66-24.87,50.51-45.59,72.42-1.55,1.65-3.09,3.37-4.58,5-.68.77-1.36,1.53-2.05,2.29-1.68,3.29-4.34,5.69-6.92,8-.84.76-1.71,1.54-2.53,2.33A5.49,5.49,0,0,1,278.28,367.21Zm64-91.13a10.86,10.86,0,0,0-2.47,2.58l-3.65,4.61c-5.84,7.39-11.88,15-18.12,22.28-5,5.85-10.28,11.7-15.35,17.36-5.61,6.27-11.42,12.75-17,19.26-4.69,5.49-7.13,12.35-9.43,19.47-.61,1.92-.74,3.19.4,4,1.4,1,3,.64,4.73-1,.83-.81,1.7-1.6,2.55-2.36,2.53-2.28,5.14-4.63,6.73-7.78l.07-.11,2.1-2.33c1.49-1.67,3-3.4,4.6-5.06C317.68,325.53,331,300.28,342.23,276.08Z"/><path class="cls-24" d="M172.47,333.37c-9.83-9.69-16.13-21.84-23.27-33.4-1.75-2.82-3.3-5.77-5-8.6-2.74-4.48-6.6-7.2-12.73-6.11l.56-2.16c2,0,4-.15,5.92,0,6.29.57,12.52-.76,16.78-5,8.46-8.37,18.5-8.63,28.74-6.68,9.91,1.88,18.36.23,26.5-6.49-4.86,5.28-3.38,11.07-2.9,16.91a150.76,150.76,0,0,1-3.89,47.51c-1.64,6.88-4.26,13.31-11.78,16l-.89-1.2c6.57-12.23,10-25.4,11.62-39.09-.18-11.38-2.14-13.4-13-13.47-8.6-.06-16.25,2.28-22.46,8.57-3.88,3.94-5.53,8.15-2.48,13.31,2.46,6.42,8.89,10.61,10,17.79A3,3,0,0,1,172.47,333.37Z"/><path d="M191.18,346l-.22-.3-.89-1.21-.19-.25.15-.28c6-11.17,9.78-23.9,11.56-38.91-.18-11-1.93-12.84-12.53-12.91-9.21,0-16.45,2.69-22.1,8.42-4.29,4.35-5,8.26-2.41,12.7a30.82,30.82,0,0,0,4.57,7.38c2.38,3.13,4.84,6.36,5.49,10.59l0,.1,0,.1a3.56,3.56,0,0,1-1.91,2.41l-.32.16-.26-.25c-8-7.86-13.71-17.46-19.26-26.74-1.35-2.26-2.7-4.52-4.09-6.75-.91-1.47-1.78-3-2.62-4.47s-1.58-2.78-2.42-4.14c-3-4.95-6.91-6.82-12.21-5.87l-.77.13.85-3.29H132c.62,0,1.23,0,1.85,0a33.38,33.38,0,0,1,4.12.06c6.8.61,12.61-1.11,16.38-4.84,9.29-9.2,20.47-8.48,29.18-6.82,10.19,1.93,18.47-.1,26.09-6.39l.68.72c-4,4.4-3.53,9.12-3,14.11.09.81.17,1.62.24,2.42a151.89,151.89,0,0,1-3.91,47.67c-1.62,6.83-4.21,13.54-12.09,16.35Zm-.12-1.85.48.65c7.16-2.72,9.58-9.06,11.11-15.51a150.77,150.77,0,0,0,3.88-47.35c-.06-.8-.15-1.6-.23-2.4-.43-4-.88-8.21,1.28-12.15-7.13,4.89-14.92,6.35-24.24,4.58-16.12-3.06-23.59,1.89-28.29,6.55-4,3.94-10.09,5.76-17.18,5.12a35.59,35.59,0,0,0-4-.05l-1.49,0-.28,1.06c5.31-.7,9.41,1.42,12.49,6.45.84,1.38,1.65,2.8,2.43,4.17s1.7,3,2.6,4.44c1.39,2.24,2.74,4.5,4.1,6.77,5.45,9.12,11.09,18.55,18.83,26.27a2.47,2.47,0,0,0,1.06-1.48c-.64-3.94-2.9-6.91-5.28-10a31.24,31.24,0,0,1-4.68-7.54c-2.82-4.76-2-9.18,2.6-13.84,5.85-5.93,13.29-8.75,22.82-8.72,11.19.07,13.34,2.29,13.52,14C200.8,320.16,197,332.91,191.06,344.13Z"/><path class="cls-25" d="M224.6,350.87c-1.93,10.61-6.41,18-14.74,22.47-9,4.82-18.28,6.67-28.75,4.25-11-2.53-21.59-5.17-30.78-12.79C175.29,362.47,199.3,355.82,224.6,350.87Z"/><path d="M190.1,379.14a40.84,40.84,0,0,1-9.1-1.06c-10-2.32-21.41-4.95-31-12.9l-.93-.77,1.2-.11c17.32-1.61,33.85-5.24,51.34-9.08,7.45-1.64,15.15-3.33,22.88-4.84l.72-.14-.13.72c-2,11.17-6.79,18.42-15,22.82A41.75,41.75,0,0,1,190.1,379.14Zm-38.51-14c9.21,7.2,20,9.71,29.63,11.92s19,.86,28.4-4.2c7.74-4.15,12.31-11,14.35-21.4-7.47,1.47-14.92,3.11-22.13,4.69C184.72,360,168.53,363.5,151.59,365.18Z"/><path class="cls-26" d="M124.64,250.73c0,11.56-8.25,20.78-18.36,20.55-9.43-.21-16.64-7.78-16.62-17.44,0-10.06,9.07-20.22,18.16-20.39S124.65,241.2,124.64,250.73Z"/><path d="M106.64,271.79h-.37c-9.78-.22-17.13-7.93-17.11-17.94,0-10.36,9.27-20.71,18.65-20.89a16.44,16.44,0,0,1,11.92,4.88,18.19,18.19,0,0,1,5.41,12.9,22.41,22.41,0,0,1-6.45,16A17.21,17.21,0,0,1,106.64,271.79ZM108.11,234h-.28c-8.89.17-17.64,10-17.67,19.89,0,9.45,6.91,16.73,16.13,16.94A16.1,16.1,0,0,0,118,266a21.42,21.42,0,0,0,6.15-15.29h0A17.19,17.19,0,0,0,119,238.54,15.53,15.53,0,0,0,108.11,234Z"/><path class="cls-27" d="M240.22,228.54c-.18,9.8-7.73,18.14-16.31,18-9.3-.15-18.78-9.59-18.68-18.6.1-9.61,7.65-18.52,15.8-18.66C230.49,209.13,240.39,219.06,240.22,228.54Z"/><path d="M224.12,247h-.22c-9.6-.15-19.27-9.79-19.17-19.1.11-9.89,7.87-19,16.29-19.16,4.63-.07,9.58,2.16,13.55,6.15s6.23,9,6.15,13.62h0C240.54,238.63,233,247,224.12,247Zm-2.87-37.26H221c-7.91.13-15.21,8.79-15.31,18.17-.1,8.81,9.08,17.94,18.18,18.09h.2c8.17,0,15.44-8.12,15.61-17.51.07-4.33-2.11-9.15-5.86-12.9S225.56,209.78,221.25,209.78Z"/><path class="cls-24" d="M191.36,345.38c-3.14,3.11-6,1-8.69-.66a24.21,24.21,0,0,1-10.2-11.35c.3-.24.6-.48.89-.73,7.65,1.41,11.69,8,17.5,12.1Z"/><path d="M188,347.46c-1.83,0-3.55-1.06-5-2l-.52-.32A24.47,24.47,0,0,1,172,333.56l-.14-.34.29-.24.88-.72.18-.15.23,0c5.28,1,8.91,4.37,12.41,7.67a50.4,50.4,0,0,0,5.29,4.51l.1.1.78,1-.32.32A5.2,5.2,0,0,1,188,347.46Zm-14.9-13.94a23.55,23.55,0,0,0,9.85,10.77l.53.33c2.41,1.5,4.7,2.91,7.23.71l-.18-.22a50.72,50.72,0,0,1-5.33-4.57c-3.5-3.28-6.81-6.39-11.68-7.36Z"/><path class="cls-28" d="M166.41,255.74a4.15,4.15,0,0,1-4.31,3.13c-1.44,0-2.78-1.11-2.33-2.49.71-2.13,3-2.36,4.92-2.53C165.8,253.75,166.48,254.43,166.41,255.74Z"/><path d="M162.22,259.37h-.14a3.14,3.14,0,0,1-2.5-1.23,2.1,2.1,0,0,1-.28-1.91c.82-2.49,3.44-2.72,5.35-2.88a2,2,0,0,1,1.64.51,2.35,2.35,0,0,1,.62,1.9l0,.13A4.61,4.61,0,0,1,162.22,259.37Zm2.68-5h-.17c-2.19.19-3.91.47-4.48,2.19a1.09,1.09,0,0,0,.15,1,2.17,2.17,0,0,0,1.71.81,3.64,3.64,0,0,0,3.8-2.72,1.38,1.38,0,0,0-.31-1.07A1,1,0,0,0,164.9,254.34Z"/><path class="cls-29" d="M190.86,344.74c-8.24-.56-11.92-7.71-17.5-12.1-2.59-6.44-8.84-10.72-10.48-17.72C166.08,303.17,185.28,296,196,299c3.55,1,7.16,1.87,8.48,6-1.27,8.05-2.28,16.16-3.92,24.13C199.3,335.39,195.18,340.2,190.86,344.74Z"/><path d="M191.06,345.26l-.23,0c-6-.41-9.67-4.21-13.22-7.88a46.55,46.55,0,0,0-4.56-4.33l-.11-.08-.05-.12a33.22,33.22,0,0,0-4.8-7.59c-2.34-3.05-4.76-6.2-5.7-10.21l0-.12,0-.12c1.26-4.63,5.08-9,10.77-12.19,7.42-4.21,16.65-5.86,23-4.09l.33.09c3.5,1,7.13,2,8.49,6.24l0,.11,0,.12c-.39,2.42-.75,4.85-1.11,7.29-.82,5.54-1.67,11.28-2.82,16.86-1.33,6.48-5.59,11.39-9.85,15.87Zm-17.29-12.93a47.9,47.9,0,0,1,4.56,4.33c3.53,3.65,6.86,7.1,12.33,7.56,4.1-4.32,8.17-9.06,9.43-15.2,1.14-5.56,2-11.28,2.81-16.81.36-2.4.71-4.79,1.09-7.18-1.23-3.65-4.41-4.53-7.77-5.47l-.33-.09c-6.09-1.7-15-.09-22.23,4-5.4,3.07-9,7.13-10.26,11.46.91,3.74,3.23,6.77,5.48,9.7A34.2,34.2,0,0,1,173.77,332.33Z"/><path class="cls-30" d="M204.5,305c-14.31-7.19-26.84-4.74-37.76,6.86a34.22,34.22,0,0,1-3.86,3.07c-5-5.86-5.22-8.58-1.34-13.52,9.24-11.76,21.78-14,35.57-11.94,5.76.88,7.43,3.46,7.69,9.61C204.88,301,204.61,303,204.5,305Z"/><path d="M162.81,315.61l-.31-.37c-5.08-6-5.37-9-1.36-14.15,8.32-10.58,20.12-14.55,36.05-12.12,5.78.88,7.83,3.42,8.11,10.08a33.16,33.16,0,0,1-.16,4.12c0,.62-.1,1.23-.14,1.85l0,.76-.68-.34c-14.08-7.08-26.24-4.87-37.18,6.75a18,18,0,0,1-2.67,2.2c-.42.3-.84.6-1.24.92Zm25.8-26.33c-11.36,0-20.14,4.1-26.68,12.43-3.67,4.67-3.51,7.07,1,12.52l.89-.65a17.39,17.39,0,0,0,2.52-2.07c10.95-11.64,23.63-14.09,37.68-7.3l.09-1.12a31.48,31.48,0,0,0,.16-4c-.26-6.19-2-8.33-7.26-9.13A56,56,0,0,0,188.61,289.28Z"/><path class="cls-31" d="M117.58,244.86a8.43,8.43,0,0,1-9,8.36A7.33,7.33,0,0,1,101.8,246c0-4.64,4.36-8.53,9.29-8.22C115.21,238,117.72,240.75,117.58,244.86Z"/><path d="M109.26,253.75q-.39,0-.78,0A7.81,7.81,0,0,1,101.3,246a8.35,8.35,0,0,1,2.72-6.14,9.53,9.53,0,0,1,7.1-2.59c4.38.27,7.11,3.27,7,7.62h0a9.2,9.2,0,0,1-3.08,6.69A8.59,8.59,0,0,1,109.26,253.75Zm1.28-15.52a8.54,8.54,0,0,0-5.83,2.34,7.31,7.31,0,0,0-2.41,5.4,6.81,6.81,0,0,0,6.27,6.75,7.56,7.56,0,0,0,5.76-1.91,8.23,8.23,0,0,0,2.76-6c.12-3.83-2.19-6.35-6-6.59Z"/><path class="cls-32" d="M218,214.39c3.91-.13,8.5,3.94,8.49,8,0,3.56-1.48,6.41-5.65,6.64-4.43.25-9.37-4.27-9.23-8.4A6.88,6.88,0,0,1,218,214.39Z"/><path d="M220.52,229.56a9.81,9.81,0,0,1-6.61-3,8.27,8.27,0,0,1-2.78-6,7.36,7.36,0,0,1,6.88-6.74h0a9,9,0,0,1,6.24,2.73,8.32,8.32,0,0,1,2.76,5.79c0,4.39-2.18,6.92-6.12,7.14ZM218,214.89a6.39,6.39,0,0,0-5.91,5.78,7.31,7.31,0,0,0,2.48,5.21,8.6,8.6,0,0,0,6.23,2.67c3.42-.19,5.16-2.25,5.17-6.14a7.31,7.31,0,0,0-2.46-5.07,8,8,0,0,0-5.51-2.45Z"/></g></g></svg>